<?xml version="1.0" encoding="UTF-8" standalone="no"?>
<!DOCTYPE svg PUBLIC "-//W3C//DTD SVG 1.1//EN" "http://www.w3.org/Graphics/SVG/1.1/DTD/svg11.dtd">
<svg width="100%" height="100%" viewBox="0 0 518 592" version="1.1" xmlns="http://www.w3.org/2000/svg" xmlns:xlink="http://www.w3.org/1999/xlink" xml:space="preserve" style="fill-rule:evenodd;clip-rule:evenodd;stroke-linejoin:round;stroke-miterlimit:1.41421;">
    <g transform="matrix(1,0,0,1,-2800.56,-1977.16)">
        <g transform="matrix(4.16667,0,0,4.16667,1827.46,1173)">
            <path d="M275.515,325.286C275.522,325.219 275.529,325.151 275.536,325.084C275.173,324.995 274.807,324.918 274.448,324.816C272.92,324.382 271.364,324.022 269.878,323.472C268.829,323.084 267.873,322.443 266.885,321.898C266.26,321.553 265.568,321.268 265.054,320.796C263.761,319.608 262.453,318.419 261.615,316.819C261.464,316.531 261.082,316.265 260.758,316.182C259.159,315.772 257.546,315.412 255.931,315.067C254.952,314.858 253.96,314.705 252.711,314.48C253.436,315.681 253.843,316.86 254.654,317.591C256.363,319.132 258.195,320.581 260.144,321.799C262.055,322.991 263.878,324.449 266.265,324.732C267.872,324.923 269.454,325.391 271.064,325.496C272.536,325.593 274.031,325.369 275.515,325.286M260.555,313.905C261.427,313.97 262.04,314.247 262.423,315.091C262.727,315.763 263.232,316.341 263.577,316.998C264.695,319.127 266.772,320.13 268.761,321.009C271.357,322.156 274.181,322.735 277.068,322.361C278.395,322.189 279.761,321.966 280.993,321.473C284.49,320.075 287.921,318.51 291.391,317.04C292.951,316.379 294.699,316.031 295.707,314.482C296.195,313.734 296.539,312.895 296.989,312.12C297.363,311.475 297.272,310.939 296.726,310.386C295.702,311.306 294.707,312.219 293.686,313.101C293.381,313.366 293.032,313.633 292.656,313.752C289.842,314.645 287.014,315.492 283.998,315.161C283.807,315.14 283.611,315.15 283.418,315.16C281.892,315.235 280.362,315.193 278.937,314.61C277.381,313.974 275.934,314.263 274.459,314.825C274.029,314.989 273.55,315.128 273.098,315.114C271.693,315.07 270.289,314.958 268.886,314.847C268.508,314.816 268.067,314.795 267.775,314.594C266.265,313.556 264.58,312.686 263.764,310.901C263.503,310.33 263.098,310.216 262.511,310.227C260.862,310.257 259.213,310.316 257.598,309.793C256.191,309.338 254.678,309.156 253.335,308.569C250.677,307.408 248.386,305.711 246.782,303.216C246.679,303.055 246.55,302.903 246.406,302.777C246.267,302.655 246.106,302.541 245.935,302.478C244.322,301.88 242.705,301.292 241.033,300.682C241.481,301.557 241.892,302.548 242.464,303.434C243.816,305.532 245.107,307.685 247.401,308.974C248.355,309.51 249.298,310.142 250.07,310.908C251.519,312.342 253.4,312.849 255.222,313.324C256.934,313.771 258.769,313.772 260.555,313.905M246.669,294.588C244.624,294.5 242.987,293.33 241.436,292.164C240.286,291.3 239.341,290.161 238.4,289.239C238.707,293.577 243.21,299.332 246.675,300.536C246.903,299.695 247.13,298.856 247.355,298.026L248.515,298.026C248.656,299.264 248.707,300.447 248.94,301.593C249.286,303.295 250.234,304.509 251.761,305.508C254.464,307.278 257.286,308.567 260.503,308.938C261.738,309.081 262.923,308.03 262.905,306.837C262.893,306.078 262.902,305.32 262.902,304.561C263.535,305.808 264.025,307.076 264.456,308.363C264.702,309.099 265.075,309.661 265.765,310.072C266.878,310.733 267.928,311.499 269.028,312.185C269.39,312.411 269.81,312.584 270.227,312.673C271.197,312.88 272.182,313.018 273.159,313.189C274.134,313.359 275.03,313.099 276.004,312.771C275.332,312.1 274.749,311.516 274.164,310.934C272.738,309.516 272.773,310.068 274.011,308.471C274.037,308.437 274.11,308.439 274.386,308.363C274.723,308.753 275.13,309.234 275.548,309.705C277.244,311.62 279.539,312.398 281.924,312.875C284.259,313.343 286.609,313.31 288.977,312.792C291.13,312.322 293.075,311.594 294.577,309.919C295.179,309.248 295.688,308.762 295.575,307.558C295.348,305.147 295.663,302.684 295.756,300.192C295.721,300.188 295.506,300.138 295.291,300.142C293.049,300.184 290.994,299.626 289.182,298.269C288.678,297.893 288.11,297.582 287.672,297.142C286.895,296.362 286.14,295.548 285.48,294.669C284.858,293.839 284.044,293.436 283.091,293.196C282.424,293.029 281.766,292.825 281.097,292.671C279.294,292.257 277.677,291.325 276.492,290.041C274.996,288.42 273.777,286.502 272.664,284.582C271.488,282.553 270.748,280.32 268.54,278.973C267.12,278.107 265.592,277.999 264.095,277.605C263.949,277.566 263.759,277.615 263.612,277.677C262.168,278.28 260.653,278.755 259.514,279.92C259.337,280.101 259.102,280.226 258.877,280.39C259.199,278.325 260.67,277.399 262.402,276.679C261.552,276.318 260.755,276.043 259.949,275.798C257.24,274.976 254.598,273.915 251.685,273.9C250.748,273.895 249.902,274.008 249.035,274.309C247.947,274.687 246.855,275.157 245.728,275.296C243.599,275.558 241.442,275.598 239.3,275.773C238.995,275.798 238.627,275.993 238.432,276.227C237.911,276.851 237.566,277.576 237.737,278.43C237.891,279.202 237.955,280.022 238.273,280.725C238.811,281.916 239.497,283.043 240.17,284.169C240.296,284.379 240.637,284.541 240.899,284.577C242.182,284.753 243.474,284.858 244.757,285.029C246.133,285.214 247.503,285.445 248.966,285.669C248.768,284.285 248.601,283.006 248.401,281.732C248.161,280.211 248.148,280.213 249.704,279.988C249.728,279.985 249.755,280.007 249.865,280.051C249.935,280.339 250.012,280.683 250.104,281.023C250.448,282.296 250.596,283.673 251.192,284.815C252.079,286.515 253.274,288.057 254.365,289.646C254.592,289.976 254.901,290.29 255.243,290.495C256.354,291.16 257.491,291.783 258.634,292.391C258.884,292.525 259.203,292.607 259.483,292.589C260.474,292.525 261.459,292.372 262.45,292.322C263.154,292.286 263.434,291.972 263.54,291.289C263.788,289.689 264.11,288.1 264.416,286.427C265.103,286.567 265.706,286.689 266.38,286.826C266.003,288.9 265.636,290.87 265.299,292.847C265.246,293.152 265.253,293.519 265.375,293.793C266.463,296.236 267.907,298.432 270.031,300.106C270.823,300.731 271.621,301.581 272.533,301.771C274.071,302.091 275.706,302.066 277.292,302.004C278.982,301.937 280.662,301.657 282.347,301.47L282.401,301.608C281.338,302.405 280.276,303.203 279.133,304.061C279.854,304.578 280.446,305.079 281.109,305.454C281.744,305.814 282.442,306.07 283.132,306.319C283.823,306.568 284.538,306.75 285.296,306.978C283.475,307.074 281.855,306.702 280.341,305.769C279.007,304.947 277.617,304.26 275.943,304.342C273.576,304.458 271.513,303.627 269.598,302.227C268.768,301.619 267.979,301.034 267.358,300.209C266.314,298.823 265.152,297.517 264.197,296.075C263.383,294.845 262.442,294.363 260.94,294.458C258.618,294.605 258.619,294.498 257.84,296.765C257.507,297.734 257.131,298.688 256.731,299.765C256.299,299.177 255.983,298.726 255.645,298.293C255.304,297.855 255.144,297.433 255.375,296.856C255.682,296.092 255.853,295.274 256.139,294.5C256.339,293.955 256.241,293.64 255.761,293.257C254.045,291.885 252.363,290.467 250.712,289.016C249.443,287.899 247.951,287.316 246.32,287.2C244.196,287.048 242.06,287.063 239.881,287.006C239.881,286.962 239.834,287.119 239.889,287.223C240.29,287.988 240.679,288.763 241.134,289.495C242.142,291.121 243.766,291.88 245.512,292.342C247.801,292.948 250.144,293.379 252.235,294.559C252.752,294.851 253.176,295.307 253.643,295.687C253.574,295.774 253.505,295.861 253.436,295.948C251.262,295.063 249.002,294.687 246.669,294.588M287.88,234.518C287.042,233.283 286.203,232.048 285.347,230.785C286.041,229.793 286.721,228.823 287.4,227.853C286.187,228.489 285.139,229.283 284.038,229.996C283.681,230.228 283.181,230.359 282.754,230.343C281.655,230.299 280.562,230.14 279.465,230.044C279.196,230.021 278.884,229.981 278.654,230.085C276.904,230.874 275.104,231.61 274.188,233.673C275.365,232.92 276.428,232.237 277.495,231.56C277.678,231.445 277.886,231.26 278.071,231.273C279.688,231.386 281.378,231.286 282.899,231.742C284.572,232.243 286.29,232.929 287.453,234.423C287.523,234.514 287.656,234.558 287.759,234.624C287.8,234.589 287.84,234.554 287.88,234.518M275.948,218.661C278.043,218.858 280.139,219.056 282.268,219.257C282.146,220.855 282.032,222.359 281.917,223.862C282.009,223.888 282.102,223.913 282.194,223.939C283.331,221.621 284.456,219.296 285.61,216.986C286.333,215.539 286.154,214.023 285.923,212.537C285.827,211.92 285.344,211.363 285.036,210.779C284.95,210.827 284.862,210.875 284.775,210.923C284.94,211.753 285.262,212.587 285.241,213.412C285.172,216.157 283.39,218.059 280.515,218.194C278.993,218.265 277.473,218.398 275.952,218.503C275.951,218.555 275.949,218.608 275.948,218.661M295.48,219.926C295.234,221.001 294.958,222.182 294.659,223.438C293.45,224.655 293.009,226.311 292.681,228.012C292.473,229.089 292.311,230.215 292.394,231.298C292.494,232.599 292.808,233.897 293.152,235.162C293.788,237.509 294.223,239.847 293.293,242.204C293.115,242.658 292.802,243.108 292.436,243.428C291.537,244.214 290.582,244.774 289.246,244.475C286.708,243.908 284.185,244.497 281.693,244.904C280.738,245.059 279.856,245.723 278.965,246.2C277.813,246.816 276.685,247.476 275.602,248.227C276.832,247.856 278.061,247.484 279.291,247.115C282.638,246.11 285.961,246.098 289.389,246.908C292.221,247.578 294.187,251.045 293.836,253.4C293.638,254.729 293.344,256.043 293.073,257.36C292.776,258.8 291.549,259.39 290.46,260.036C289.212,260.776 287.869,260.738 286.484,260.278C284.695,259.684 282.842,259.984 281.083,260.356C278.776,260.846 276.485,261.242 274.126,261.067C273.626,261.031 273.102,260.896 272.652,260.676C270.985,259.863 269.496,258.809 268.147,257.505C267.34,256.724 267.349,255.73 266.985,254.836C266.077,252.607 266.301,250.27 266.832,248.082C267.289,246.198 268.3,244.423 269.945,243.143C271.201,242.166 272.385,241.095 273.514,239.929C272.008,240.735 270.485,241.51 269.006,242.361C268.493,242.657 268.259,242.59 267.854,242.165C266.163,240.393 265.878,238.229 266.04,235.95C266.076,235.463 266.469,235.01 266.652,234.524C267.527,232.196 269.407,230.732 271.187,229.172C272.758,227.796 274.288,226.374 275.755,224.826C274.881,225.163 273.994,225.47 273.138,225.849C272.455,226.152 272.017,226.052 271.543,225.418C269.963,223.309 269.294,220.973 269.628,218.369C269.677,217.987 269.976,217.64 270.154,217.273C271.126,215.273 272.785,214.049 274.704,213.032C275.83,212.435 277.009,212.357 278.2,212.197C278.689,212.131 279.182,212.092 279.865,212.021C279.368,211.575 278.995,211.236 278.619,210.902C277.661,210.053 277.691,209.293 278.638,208.381C279.629,207.425 280.905,207.059 282.128,206.576C282.564,206.403 283.004,206.244 283.44,206.073C284.928,205.49 285.265,204.621 284.583,203.136C284.493,202.938 284.396,202.744 284.195,202.326C283.791,202.954 283.438,203.447 283.144,203.973C282.864,204.473 282.553,204.837 281.929,204.955C281.039,205.123 280.183,205.476 279.291,205.626C278.606,205.74 278.229,206.088 277.939,206.667C277.635,207.274 277.269,207.85 276.928,208.444C275.139,206.738 275.496,204.771 276.071,202.791C276.133,202.577 276.414,202.37 276.643,202.266C279.784,200.832 283.012,199.654 286.435,199.098C286.757,199.046 287.146,199.104 287.44,199.244C288.336,199.669 289.199,200.161 290.077,200.624C291.568,201.411 292.601,202.571 293.368,204.387C292.394,204.288 291.482,204.194 290.569,204.104C289.724,204.021 288.965,205.062 289.338,205.819C289.406,205.958 289.635,206.033 289.805,206.103C291.149,206.66 292.498,207.209 293.936,207.797C293.501,209.775 292.536,211.737 294.025,213.712C293.932,213.748 293.839,213.784 293.745,213.82C292.871,213.433 291.996,213.046 291.121,212.659C292.621,215.321 295.002,217.543 294.721,220.985C295.001,220.65 295.245,220.291 295.48,219.926M298.878,326.905C297.533,326.372 296.135,325.823 295.913,324.034C292.93,324.279 289.974,324.521 287.019,324.764C287.013,324.705 287.006,324.646 287,324.587C288.39,324.276 289.783,323.977 291.17,323.65C293.727,323.048 296.025,322.157 296.836,319.236C297.072,318.384 296.745,317.84 296.443,317.177C295.735,317.698 295.139,318.352 294.399,318.636C292.913,319.204 291.321,319.495 289.824,320.039C287.828,320.765 285.721,321.208 284.041,322.725C283.221,323.466 282.898,324.172 282.998,325.203C283.099,326.244 284.081,327.466 285.048,327.857C286.909,328.612 288.839,328.674 290.807,328.647C292.195,328.628 293.567,328.69 294.749,327.783C294.821,327.728 294.936,327.731 295.032,327.707C295.068,327.778 295.105,327.848 295.142,327.919C294.154,328.481 293.225,329.252 292.163,329.558C290.587,330.013 288.917,330.147 287.285,330.401C286.801,330.476 286.272,330.633 285.826,330.517C284.097,330.068 282.367,329.595 280.687,328.994C279.197,328.46 277.741,328.062 276.121,328.101C274.537,328.14 272.946,327.864 271.358,327.726C271.007,327.696 270.656,327.669 270.304,327.64C271.173,328.301 272.037,328.848 272.959,329.268C273.564,329.543 274.242,329.716 274.904,329.793C276.573,329.988 278.28,329.96 279.917,330.291C281.388,330.59 282.755,331.373 284.222,331.718C286.426,332.236 288.641,332.76 290.959,332.131C292.905,331.603 294.699,330.915 296.066,329.346C296.57,328.768 297.178,328.271 297.788,327.803C297.986,327.651 298.398,327.586 298.617,327.688C299.083,327.906 299.542,328.141 300.001,328.374C299.907,327.922 299.773,327.522 299.612,327.168C299.365,327.086 299.12,327 298.878,326.905M252.835,229.68C252.893,229.419 253.002,229.151 253.155,228.933C253.863,227.921 254.618,226.941 255.301,225.912C255.489,225.629 255.557,225.217 255.55,224.867C255.54,224.348 255.427,223.831 255.336,223.316C255.15,222.261 254.621,222.015 253.679,222.556C252.702,223.118 251.71,223.661 250.778,224.291C250.374,224.563 249.994,224.982 249.792,225.421C249.104,226.918 248.457,228.438 247.878,229.981C247.373,231.325 246.981,232.711 246.491,234.226C248.466,234.074 250.211,233.94 251.955,233.806C252.259,232.367 252.536,231.021 252.835,229.68M240.831,274.205C243.317,274.399 245.632,273.883 247.883,272.871C249.967,271.934 252.076,271.86 254.305,272.528C256.085,273.062 257.96,273.296 259.806,273.585C261.082,273.785 262.408,273.727 263.66,274.011C265.157,274.351 266.756,274.213 268.112,275.286C271.489,277.955 274.617,280.786 276.376,284.856C277.138,286.619 278.03,288.344 279.461,289.693C279.763,289.977 280.146,290.241 280.538,290.353C282.151,290.813 283.793,291.173 285.397,291.659C285.841,291.793 286.27,292.174 286.567,292.55C287.177,293.324 287.52,294.427 288.281,294.937C290.133,296.181 291.984,297.47 294.363,297.724C296.074,297.908 297.926,296.352 297.763,294.581C297.539,292.142 297.393,289.696 297.132,287.262C296.978,285.818 296.82,284.342 296.383,282.97C295.971,281.675 295.211,280.485 294.56,279.272C294.389,278.953 294.101,278.643 293.79,278.457C292.11,277.457 290.409,276.493 288.71,275.525C287.861,275.041 287.001,274.575 286.146,274.101C286.17,274.055 286.194,274.008 286.218,273.96C289.003,275.039 291.788,276.118 294.702,277.246C294.924,275.722 295.536,274.378 295.368,272.829C295.06,269.979 293.936,267.522 292.274,265.225C291.076,263.57 289.538,262.615 287.558,262.244C286.482,262.041 285.433,261.529 284.364,261.505C283.002,261.474 281.633,261.811 280.264,261.962C277.055,262.317 273.843,262.661 270.717,261.449C270.284,261.281 269.762,261.222 269.428,260.939C268.418,260.085 267.201,259.302 266.593,258.199C265.93,256.996 264.965,256.887 263.938,256.65C263.116,256.46 262.262,256.203 261.441,256.259C260.354,256.333 259.229,256.545 258.225,256.954C257.228,257.359 256.155,257.909 255.482,258.704C254.356,260.037 253.518,261.614 252.566,263.092C252.335,263.452 252.13,263.828 251.913,264.197C251.861,264.178 251.809,264.159 251.757,264.139C251.999,262.279 252.242,260.418 252.502,258.415C252.159,258.574 251.963,258.655 251.775,258.752C250.262,259.538 248.827,260.602 247.219,261.049C245.066,261.648 242.767,262.412 240.58,260.978C239.779,261.58 239.086,262.141 238.352,262.64C236.731,263.743 236.482,265.546 236.287,267.203C236.06,269.14 236.628,271.029 237.912,272.594C238.661,273.508 239.57,274.107 240.831,274.205M239.466,255.429C239.107,253.944 239.563,252.624 240.002,251.338C240.225,250.683 241.097,250.251 241.836,249.745C241.42,251.89 241.851,253.839 242.813,255.708C243.358,255.635 243.598,255.327 243.513,254.802C243.292,253.433 243.825,252.264 244.488,251.14C244.627,250.905 244.897,250.691 245.154,250.592C246.54,250.055 247.95,249.922 249.438,250.197C251.224,250.527 253.039,250.701 254.841,250.942L254.889,250.718C252.415,250.071 249.946,249.406 247.466,248.786C246.632,248.578 245.79,248.476 245.305,247.614C245.225,247.472 244.855,247.421 244.633,247.448C244.178,247.502 243.733,247.638 243.293,247.738C243.293,246.379 243.301,245.092 243.292,243.805C243.277,241.662 243.861,239.681 244.909,237.829C245.029,237.618 245.261,237.411 245.487,237.328C246.415,236.983 247.356,236.665 248.307,236.388C248.577,236.309 248.902,236.372 249.192,236.423C249.489,236.475 249.778,236.578 250.062,236.682C251.12,237.072 252.361,237.019 252.827,238.525C253.1,239.411 253.872,240.247 254.623,240.854C255.492,241.556 256.584,241.982 257.58,242.527C257.618,242.467 257.656,242.407 257.694,242.346C256.66,241.485 255.598,240.654 254.606,239.746C254.276,239.445 254.032,238.971 253.915,238.532C253.696,237.71 253.669,236.836 253.436,236.019C252.946,234.301 253.699,232.779 254.04,231.177C254.423,229.379 255.983,228.496 256.953,227.16C257.062,227.01 257.404,226.989 257.64,226.98C258.302,226.957 258.968,227.008 259.627,226.962C260.321,226.913 261.176,227.013 261.666,226.649C262.941,225.705 264.335,224.77 264.731,222.899C263.992,223.252 263.327,223.551 262.681,223.886C262.019,224.229 261.359,224.382 260.618,224.142C260.284,224.035 259.903,223.978 259.556,224.015C258.401,224.136 257.83,223.512 257.378,222.556C257.167,222.111 257.065,221.774 257.307,221.337C257.465,221.05 257.602,220.737 257.676,220.419C258.145,218.422 259.565,217.197 261.207,216.145L261.085,215.985C260.132,216.525 259.093,216.959 258.248,217.635C257.386,218.326 256.713,219.254 255.883,220.04C256.43,218.426 256.184,216.459 258.031,215.429C258.243,215.31 258.438,215.135 258.595,214.947C259.964,213.314 261.873,212.725 263.817,212.169C264.175,212.067 264.551,211.788 264.77,211.483C265.752,210.119 266.715,208.739 267.612,207.32C268.072,206.593 268.631,206.066 269.401,205.689C270.98,204.914 272.53,204.082 274.132,203.253C274.243,205.625 273.557,208.035 275.409,210.023C274.736,210.441 274.206,210.78 273.666,211.103C270.84,212.794 268.962,215.276 267.709,218.272C267.607,218.517 267.592,218.808 267.579,219.08C267.464,221.492 267.593,223.878 268.419,226.176C268.713,226.992 268.665,227.619 267.78,228.065C265.645,229.143 264.361,230.974 263.69,233.193C263.322,234.411 263.285,235.728 263.055,236.992C262.743,238.714 263.367,240.277 263.97,241.794C264.2,242.375 264.967,242.777 265.547,243.176C266.158,243.595 266.412,244.013 266.006,244.725C265.696,245.271 265.474,245.867 265.171,246.533C263.865,245.936 262.608,245.361 261.351,244.786C261.277,244.875 261.203,244.963 261.128,245.051C262.305,246.156 263.471,247.271 264.662,248.359C265.063,248.725 265.211,249.123 265.169,249.664C265.04,251.34 264.95,253.018 264.842,254.743C264.43,254.639 264.066,254.597 263.744,254.46C261.718,253.597 259.579,253.714 257.468,253.808C256.805,253.837 256.151,254.29 255.512,254.59C252.645,255.934 249.844,257.447 246.899,258.586C245.292,259.208 243.518,259.376 241.718,258.511C240.286,257.823 239.805,256.835 239.466,255.429" style="fill:rgba(127, 127, 127, 1);fill-rule:nonzero;"/>
        </g>
        <g transform="matrix(4.16667,0,0,4.16667,1827.46,1173)">
            <path d="M302.57,233.03C302.632,231.439 303.432,230.136 304.227,228.871C304.658,228.186 305.431,227.718 306.05,227.152L306.206,227.269C306.002,227.914 305.858,228.586 305.58,229.197C305.153,230.133 305.25,231.061 305.377,232.027C305.449,232.574 305.699,232.767 306.199,232.838C307.309,232.996 308.414,233.19 309.544,233.494C305.743,233.444 302.508,234.673 299.852,237.432C300.609,236.312 301.379,235.2 302.116,234.068C302.322,233.753 302.556,233.383 302.57,233.03M314.87,256.978C314.894,257.057 314.919,257.135 314.943,257.215C311.974,258.504 309.005,259.794 305.939,261.126C305.674,260.324 305.439,259.609 305.155,258.748C308.464,258.145 311.667,257.561 314.87,256.978M298.074,221.151C299.232,220.64 300.461,220.287 301.659,219.867C301.686,219.936 301.713,220.005 301.74,220.073C301.609,220.159 301.484,220.253 301.347,220.328C299.586,221.295 297.816,222.249 296.064,223.235C295.803,223.382 295.501,223.639 295.426,223.905C294.908,225.738 294.492,227.589 294.91,229.515C294.98,229.836 294.931,230.183 295.006,230.502C295.11,230.942 295.187,231.434 295.438,231.788C296.364,233.093 297.358,234.351 298.385,235.704C298.123,236.07 297.79,236.613 297.381,237.092C296.183,238.494 295.715,240.048 295.793,241.932C295.873,243.845 295.948,245.744 296.568,247.547C296.773,248.144 297.445,248.64 298.014,249.015C298.189,249.13 298.801,248.765 299.091,248.491C300.758,246.912 302.753,246.103 305.004,245.84C305.461,245.786 305.91,245.673 306.362,245.587C305.973,245.926 305.55,246.116 305.134,246.321C304.049,246.855 302.764,247.181 301.924,247.975C300.038,249.756 298.144,251.612 297.544,254.323C297.285,255.491 296.716,256.644 296.713,257.805C296.704,261.016 297.251,264.166 298.401,267.187C298.487,267.412 298.592,267.664 298.765,267.817C299.468,268.434 300.183,269.044 300.935,269.598C301.164,269.767 301.577,269.886 301.822,269.797C302.921,269.395 304.037,268.995 305.058,268.433C306.295,267.755 307.442,266.914 308.628,266.143C308.678,266.207 308.728,266.271 308.779,266.334C308.475,266.6 308.166,266.862 307.867,267.134C305.24,269.53 302.561,271.884 300.642,274.931C300.166,275.689 299.753,276.5 299.419,277.331C299.019,278.325 298.626,279.345 298.424,280.392C297.964,282.788 296.899,285.164 297.977,287.663C298.14,288.04 298.24,288.446 298.358,288.841C298.862,290.532 299.35,292.234 300.913,293.319C301.177,293.502 301.46,293.769 301.749,293.791C303.942,293.963 306.139,294.095 308.337,294.202C308.606,294.216 308.919,294.058 309.156,293.899C313.786,290.802 318.334,287.597 322.313,283.666C323.522,282.471 324.808,281.491 326.494,280.998C328.373,280.448 330.187,279.681 332.03,279.009C332.05,279.053 332.072,279.098 332.093,279.143C330.039,280.406 327.984,281.669 325.859,282.976C326.041,283.073 326.127,283.152 326.22,283.164C329.263,283.554 332.175,284.706 335.341,284.442C337.908,284.229 340.445,284.136 342.663,282.601C343.202,282.228 343.961,282.083 344.358,281.613C345.607,280.135 347.009,278.716 347.064,276.561C347.086,275.71 347.531,275.038 348.308,274.563C349.199,274.018 350.032,273.375 350.876,272.756C352.325,271.694 353.03,270.084 353.556,268.5C354.373,266.044 353.411,263.649 352.827,261.045C352.433,261.809 352.151,262.394 351.832,262.958C351.705,263.183 351.538,263.444 351.321,263.551C349.183,264.613 347.162,265.944 344.736,266.339C342.681,266.673 340.905,267.574 339.617,269.238C338.574,270.586 337.057,270.882 335.582,270.984C333.44,271.133 331.271,271.082 329.129,270.923C327.731,270.818 326.392,270.884 325.034,271.169C323.193,271.555 321.382,271.954 319.864,273.19C319.163,273.761 318.278,274.113 317.6,274.705C316.11,276.009 314.697,277.401 313.261,278.765C313.149,278.872 313.106,279.051 313.036,279.2C312.187,280.992 311.346,282.788 310.485,284.573C310.311,284.934 310.195,285.471 309.491,285.152C310.434,282.262 310.763,279.167 312.715,276.655C313.558,275.57 314.161,274.256 315.14,273.327C316.548,271.99 318.079,270.74 319.923,269.973C320.126,269.888 320.357,269.534 320.344,269.319C320.209,267.022 320.215,264.729 320.848,262.504C321.112,261.58 320.775,261.054 320.115,260.555C319.06,259.757 318.452,258.715 318.224,257.392C318.123,256.801 318.098,256.302 318.323,255.734C318.887,254.301 319.364,252.833 319.904,251.39C320.763,249.095 321.049,246.799 319.966,244.494C319.26,242.994 319.108,241.219 317.718,240.055C317.256,239.667 316.826,239.221 316.466,238.738C316.201,238.384 315.957,237.939 315.908,237.511C315.737,236.009 315.661,234.496 315.533,232.988C315.512,232.747 315.455,232.494 315.348,232.279C314.906,231.391 314.45,230.51 313.977,229.638C313.516,228.787 313.16,227.929 313.078,226.929C312.846,224.115 312.877,221.31 313.155,218.505C313.47,215.324 313.473,215.324 311.045,213.27C310.877,213.127 310.687,213.001 310.551,212.832C310.316,212.54 310.045,212.249 309.912,211.909C309.483,210.805 308.996,209.705 308.742,208.557C308.343,206.747 307.554,204.841 309.178,203.393C309.518,205.012 309.839,206.75 310.26,208.463C310.462,209.28 310.705,210.16 311.191,210.82C312.249,212.254 313.419,213.64 315.309,214.048C315.905,214.176 315.986,214.526 315.899,215.077C315.633,216.763 315.329,218.451 315.206,220.15C315.036,222.492 315.219,224.809 315.893,227.096C316.391,228.785 317.41,230.112 318.364,231.515C320.311,230.63 322.184,229.779 324.131,228.894C324.393,229.564 324.629,230.161 324.88,230.798C322.894,231.529 321.03,232.283 319.119,232.891C318.024,233.239 317.346,233.664 317.275,234.968C317.227,235.85 317.3,236.516 317.851,237.236C319.056,238.81 320.188,240.444 321.292,242.092C322.718,244.223 323.509,246.539 322.798,249.115C322.366,250.677 321.835,252.219 321.231,253.723C320.416,255.755 320.154,257.645 322.038,259.257C322.14,259.345 322.196,259.498 322.307,259.567C322.528,259.704 322.762,259.877 323.007,259.908C326.166,260.316 328.868,259.112 331.464,257.504C333.463,256.265 335.11,254.45 337.516,253.871C338.476,253.639 339.389,253.213 340.348,252.976C342.024,252.563 343.709,252.005 345.409,251.93C346.817,251.869 347.835,251.599 348.491,250.323C348.738,249.843 349.201,249.425 349.296,248.927C349.643,247.102 348.974,245.457 348.146,243.882C347.955,243.518 347.582,243.249 347.303,242.948C346.544,243.782 345.903,244.575 345.166,245.264C344.687,245.711 344.664,246.073 344.949,246.612C345.08,246.859 345.154,247.343 345.015,247.483C344.696,247.805 344.343,248.087 343.733,247.719C342.44,246.941 341.063,246.301 339.702,245.642C339.425,245.509 339.052,245.468 338.746,245.52C336.623,245.872 334.523,246.326 332.654,247.464C332.149,247.77 331.648,248.131 331.259,248.568C330.001,249.985 328.795,251.449 327.527,252.945C327.066,252.579 326.604,252.213 326.127,251.834C326.787,250.843 327.472,249.967 327.987,249C328.495,248.046 329.284,247.454 330.132,246.887C330.659,246.535 331.178,246.171 331.716,245.837C333.91,244.471 336.046,242.957 338.888,243.62C339.684,243.805 340.601,243.587 341.343,243.869C342.884,244.453 343.894,243.717 344.9,242.783C345.22,242.486 345.638,242.235 345.826,241.868C346.429,240.689 345.819,237.409 344.88,236.392C343.504,234.901 341.943,233.671 340.061,232.858C339.63,232.671 339.209,232.336 338.923,231.963C338.386,231.266 337.964,230.484 337.475,229.75C336.5,228.286 335.065,227.43 333.404,226.592C334.581,229.129 336.216,231.34 335.439,234.202C335.392,234.374 335.659,234.753 335.867,234.852C336.91,235.351 337.984,235.783 339.042,236.251C339.994,236.672 340.938,237.111 341.885,237.541C338.373,237.669 329.157,236.191 327.86,235.411C329.599,235.161 331.331,234.913 333.01,234.673C333.058,234.496 333.082,234.444 333.086,234.391C333.297,231.411 331.857,228.913 330.714,226.332C330.644,226.176 330.444,226.064 330.285,225.965C329.467,225.453 328.637,224.962 327.824,224.445C326.613,223.675 325.433,222.916 323.861,223.131C322.891,223.264 321.887,223.155 320.899,223.155C321.333,222.831 321.763,222.636 322.215,222.562C322.886,222.452 322.938,222.066 323.003,221.47C323.166,219.952 322.331,218.762 321.805,217.487C321.563,216.899 321.024,216.397 320.526,215.964C319.975,215.484 319.318,215.128 318.69,214.707C318.869,214.266 319.02,213.895 319.188,213.481C320.079,213.881 320.917,214.257 321.755,214.633L322.005,214.508C321.847,213.415 321.865,212.256 321.484,211.248C321.084,210.186 320.324,209.252 319.673,208.296C319.474,208.004 319.149,207.73 318.821,207.604C317.082,206.934 315.323,206.315 313.571,205.677C314.302,205.468 315.013,205.414 315.724,205.358C316.453,205.301 317.18,205.24 317.912,205.18C317.764,204.179 315.842,200.942 315.148,200.495C315.014,200.409 314.839,200.387 314.682,200.335C312.639,199.648 310.574,199.11 308.395,199.042C307.908,199.027 307.285,198.748 306.977,198.38C305.726,196.883 304.076,196.052 302.335,195.34C302.092,195.24 301.804,195.175 301.547,195.198C298.614,195.467 298.616,195.474 296.641,197.695C296.367,198.004 296.073,198.295 295.802,198.606C295.681,198.746 295.507,198.917 295.509,199.072C295.521,200.207 295.139,201.431 296.438,202.248C296.921,202.551 297.32,202.856 297.916,202.801C298.313,202.764 298.716,202.794 299.327,202.794C298.98,203.337 298.761,203.707 298.517,204.058C296.847,206.456 295.815,209.055 296.209,212.029C296.305,212.758 296.66,213.503 297.087,214.106C297.199,214.264 298.024,213.93 298.517,213.804C298.729,213.75 298.928,213.648 299.136,213.574C300.449,213.109 301.761,212.645 303.074,212.181C301.543,213.562 300.016,214.906 298.382,216.103C297.025,217.096 296.348,218.572 295.48,219.926C295.234,221.001 294.958,222.182 294.659,223.438C294.99,223.104 295.368,222.798 295.831,222.539C296.599,222.111 297.278,221.503 298.074,221.151M305.125,311.984C310.509,313.022 315.815,313.226 321.129,311.949C320.423,313.142 318.188,314.474 316.881,314.751C314.348,315.285 311.836,315.11 309.33,314.716C307.706,314.462 306.109,314.034 304.334,313.648C304.639,313.005 304.893,312.471 305.125,311.984M355.182,277.739C355.02,277.196 355.185,276.518 354.933,276.044C354.334,274.917 353.575,273.875 352.962,272.924C352.092,273.639 351.318,274.366 350.455,274.965C349.423,275.68 348.721,276.527 348.36,277.78C348.016,278.968 347.73,280.077 348.065,281.317C348.291,282.154 348.33,283.04 348.453,283.904C348.393,283.95 348.334,283.996 348.275,284.042C347.761,283.415 347.249,282.789 346.732,282.158C345.97,282.808 345.354,283.279 344.803,283.816C343.997,284.602 343.083,285.128 341.974,285.389C339.613,285.947 339.622,285.972 339.095,288.364C338.934,289.095 338.751,289.821 338.578,290.549C338.334,289.399 338.197,288.281 338.093,287.16C337.983,285.963 337.997,285.931 336.806,285.922C333.204,285.891 329.679,285.231 326.144,284.653C325.803,284.597 325.383,284.539 325.103,284.683C323.66,285.425 322.131,286.075 320.85,287.047C317.449,289.627 314.162,292.357 310.823,295.019C310.506,295.272 310.167,295.549 309.792,295.669C307.637,296.356 305.469,297.003 303.161,296.76C302.505,296.691 301.854,296.568 301.197,296.529C300.942,296.514 300.5,296.6 300.448,296.748C300.114,297.688 299.643,298.525 299.132,299.387C298.396,300.626 297.91,302.045 297.514,303.443C297.173,304.648 297.173,305.874 297.766,307.119C298.428,308.508 299.338,309.452 300.816,309.857C301.043,309.92 301.247,310.062 301.557,310.215C300.73,310.702 299.777,310.959 299.395,311.571C298.985,312.23 299.11,313.222 299.003,314.07C298.989,314.179 298.997,314.292 298.978,314.4C298.764,315.641 299.371,316.825 300.138,317.428C301.511,318.508 303.007,319.592 304.845,319.887C306.531,320.157 308.228,320.368 309.903,320.696C312.231,321.152 314.593,320.853 316.662,320.049C319.178,319.071 321.657,317.785 323.567,315.66C324.96,314.111 326.266,312.539 327.119,310.629C327.206,310.435 327.333,310.178 327.272,310.011C326.693,308.404 326.971,306.431 325.293,305.283C325.253,305.256 325.254,305.167 325.216,305.046C326.039,305.318 326.808,305.531 327.539,305.837C327.798,305.946 328.034,306.246 328.158,306.515C328.586,307.439 328.939,308.397 329.37,309.319C329.458,309.507 329.786,309.746 329.949,309.711C331.973,309.271 334.068,309.243 335.969,308.137C337.981,306.967 340.04,305.922 341.278,303.846C341.738,303.077 342.069,302.231 342.459,301.421C342.372,301.354 342.285,301.288 342.197,301.221C341.019,301.719 339.863,302.282 338.657,302.698C337.078,303.244 335.464,303.911 333.764,303.588C332.015,303.254 330.301,302.716 328.591,302.205C327.835,301.979 327.148,301.835 326.365,302.155C320.915,304.383 315.443,306.561 309.995,308.795C308.079,309.581 306.079,309.586 304.075,309.672C304.325,309.543 304.586,309.47 304.85,309.422C306.697,309.089 308.502,308.688 310.098,307.585C311.09,306.9 312.17,306.318 313.267,305.814C316.595,304.289 319.97,302.867 323.29,301.323C325.65,300.224 327.356,298.454 328.163,295.923C328.259,295.62 328.261,295.275 328.246,294.952C328.216,294.319 328.196,293.676 328.072,293.058C327.962,292.511 327.79,291.949 327.515,291.467C326.997,290.556 326.385,289.698 325.698,288.641C327.243,289.078 328.598,289.337 329.167,290.854C329.299,291.206 329.597,291.493 329.78,291.831C329.971,292.186 330.228,292.557 330.259,292.937C330.379,294.404 330.286,295.849 329.619,297.213C329.354,297.755 329.173,298.338 328.983,298.912C328.919,299.106 328.853,299.441 328.949,299.522C329.721,300.179 330.458,301.144 331.35,301.334C332.746,301.63 334.342,301.697 335.693,301.305C337.567,300.761 339.384,299.853 341.057,298.826C343.046,297.606 345.019,296.269 346.705,294.672C349.59,291.94 352.178,288.904 353.743,285.177C354.735,282.816 356.001,280.478 355.182,277.739M335.823,317.208C333.097,318.211 330.269,318.84 327.363,318.961C326.371,319.003 325.77,319.445 325.138,320.119C322.508,322.927 319.571,325.287 315.714,326.213C314.536,326.496 313.377,326.87 312.189,327.1C310.893,327.351 309.574,327.484 308.264,327.668C308.229,327.574 308.194,327.481 308.159,327.387C313.815,326.478 318.757,324.273 322.442,319.628C321.356,320.106 320.341,320.571 319.311,321.002C318.325,321.416 317.352,322.021 316.326,322.146C313.64,322.475 310.938,322.477 308.257,321.905C305.618,321.342 302.965,320.847 300.312,320.344C300.078,320.3 299.741,320.334 299.575,320.475C298.841,321.099 298.401,323.433 298.761,324.332C299.289,325.65 300.033,326.751 301.409,327.317C301.722,327.446 301.997,327.672 302.289,327.853C301.375,327.669 300.478,327.455 299.612,327.168C299.773,327.522 299.907,327.922 300.001,328.374C300.721,328.74 301.439,329.111 302.165,329.464C302.502,329.628 302.887,329.752 303.257,329.773C307.412,330.006 311.517,329.59 315.589,328.772C316.804,328.529 318.137,328.544 319.217,328.026C321.321,327.019 323.398,325.874 325.277,324.501C327.742,322.699 330.204,321.051 333.23,320.3C336.103,319.587 338.066,317.501 339.916,315.319C339.62,315.384 339.355,315.507 339.093,315.634C338.006,316.164 336.954,316.793 335.823,317.208M321.046,207.524C322.185,208.441 323.401,209.389 323.382,211.112C323.381,211.221 323.691,211.45 323.827,211.429C325.586,211.162 327.34,210.859 329.141,210.557C328.549,208.517 327.757,206.778 326.268,205.463C325.794,205.043 325.22,204.7 324.638,204.446C324.04,204.185 323.338,204.157 322.749,203.883C321.734,203.409 320.875,203.98 319.959,204.167C319.847,204.189 319.678,204.486 319.716,204.593C320.07,205.604 320.064,206.735 321.046,207.524M327.954,212.7C329.032,212.636 329.939,212.91 330.806,213.522C333.034,215.093 335.289,216.627 337.515,218.2C337.841,218.431 338.113,218.77 338.339,219.107C339.578,220.958 340.482,222.96 340.806,225.176C341.05,226.84 342.222,227.945 343.115,229.214C344.023,230.506 344.056,230.643 343.062,231.928C342.962,231.907 342.855,231.879 342.748,231.862C341.315,231.628 340.397,230.85 339.734,229.517C339.206,228.454 338.337,227.546 337.549,226.631C337.033,226.032 336.766,225.395 336.734,224.62C336.653,222.689 335.838,220.927 334.904,219.364C334.087,217.997 332.607,217.025 331.372,215.831C330.999,216.265 330.683,216.632 330.315,217.06C333,219.018 334.882,221.344 334.514,224.977C333.62,224.785 332.795,224.609 331.969,224.427C331.892,224.41 331.793,224.377 331.753,224.318C330.746,222.809 328.932,222.728 327.525,221.93C326.951,221.604 326.323,221.375 325.753,221.044C325.514,220.905 325.295,220.647 325.185,220.392C324.612,219.058 324.254,217.62 323.201,216.526C323.081,216.401 323.05,216.116 323.087,215.926C323.289,214.874 323.523,213.827 323.759,212.72C325.164,212.72 326.563,212.782 327.954,212.7M343.523,254.573C342.406,254.716 341.183,254.676 340.208,255.139C338.277,256.056 336.453,257.215 334.644,258.367C332.575,259.685 330.766,261.403 328.12,261.693C326.821,261.836 325.607,261.656 324.356,261.531C324.124,261.508 323.758,261.549 323.653,261.7C322.135,263.868 321.612,266.27 322.022,268.888C322.559,268.729 323.062,268.432 323.545,268.463C325.874,268.612 328.233,268.592 330.477,269.39C332.147,269.985 333.882,270.011 335.62,269.926C335.916,269.911 336.252,269.751 336.483,269.555C338.212,268.101 339.894,266.591 341.648,265.168C342.133,264.775 342.785,264.506 343.401,264.375C344.906,264.056 346.382,263.767 347.795,263.056C349.953,261.97 351.359,260.475 351.777,258.009C352.14,255.864 351.6,253.951 350.113,252.865C348.996,253.339 347.977,253.913 346.884,254.194C345.803,254.471 344.642,254.43 343.523,254.573M350.091,295.104C350.296,296.48 349.657,297.611 349.174,298.743C348.039,301.399 346.827,304.023 345.573,306.625C345.26,307.275 344.653,307.779 344.206,308.368C342.31,310.862 339.816,312.678 337.308,314.48C337.174,314.576 337.04,314.695 336.887,314.736C334.663,315.334 332.505,316.233 330.154,316.272C328.973,316.292 327.793,316.276 326.42,316.276C327.489,314.777 328.446,313.413 329.44,312.078C329.55,311.93 329.887,311.871 330.105,311.896C332.791,312.201 335.193,311.12 337.637,310.314C338.242,310.114 338.694,309.474 339.236,309.062C341.238,307.541 342.297,305.335 343.412,303.196C343.804,302.443 343.791,301.485 344.042,300.644C344.148,300.287 344.398,299.914 344.689,299.682C345.224,299.257 345.826,298.908 346.424,298.568C347.921,297.713 349.182,296.611 350.091,295.104" style="fill:rgba(21, 210, 199, 1);fill-rule:nonzero;"/>
        </g>
        <g transform="matrix(4.16667,0,0,4.16667,1827.46,1173)">
            <path d="M281.04,224.476L281.381,220.005L275.103,219.413L275.143,217.806L275.895,217.676L277.316,217.573C278.369,217.494 279.423,217.416 280.478,217.367C282.883,217.254 284.353,215.768 284.414,213.392C284.424,212.941 284.296,212.442 284.16,211.914C284.089,211.637 284.019,211.36 283.963,211.084L283.845,210.488L285.376,209.644L285.77,210.393C285.856,210.557 285.958,210.719 286.06,210.88C286.336,211.319 286.649,211.817 286.742,212.41C287.002,214.084 287.169,215.722 286.352,217.356C285.546,218.969 284.755,220.588 283.964,222.207L282.635,224.924L281.04,224.476ZM273.431,233.336C274.437,231.07 276.381,230.197 278.096,229.428L278.314,229.33C278.524,229.235 278.765,229.188 279.048,229.188C279.188,229.188 279.334,229.201 279.472,229.213C279.932,229.254 280.326,229.296 280.72,229.339C281.433,229.415 282.106,229.488 282.786,229.515L282.79,229.515C283.088,229.515 283.392,229.429 283.589,229.301C283.916,229.089 284.238,228.87 284.561,228.65C285.331,228.126 286.127,227.585 287.016,227.12L288.08,228.329L286.353,230.793L288.981,234.665L287.883,235.616L287.32,235.325C287.156,235.24 286.958,235.136 286.799,234.931C285.767,233.604 284.201,232.996 282.662,232.535C281.665,232.237 280.564,232.2 279.398,232.163C278.983,232.148 278.57,232.135 278.16,232.109C278.137,232.125 277.938,232.26 277.938,232.26C277.189,232.735 276.442,233.214 275.655,233.717L272.312,235.854L273.431,233.336ZM299.166,236.967L299.795,236.041C300.344,235.236 300.892,234.432 301.423,233.616C301.509,233.483 301.738,233.134 301.744,232.998C301.815,231.154 302.725,229.707 303.527,228.43C303.897,227.841 304.42,227.421 304.926,227.016C305.119,226.86 305.312,226.705 305.492,226.541L305.998,226.078L307.175,226.958L306.997,227.52C306.935,227.713 306.88,227.908 306.825,228.103C306.691,228.575 306.551,229.063 306.333,229.541C306.011,230.248 306.075,230.973 306.199,231.92C306.204,231.954 306.208,231.979 306.212,231.999C306.237,232.005 306.27,232.012 306.316,232.018C307.678,232.212 308.74,232.42 309.759,232.694L309.535,234.322L309.326,234.321C305.74,234.321 302.836,235.526 300.45,238.006L299.166,236.967ZM304.073,258.103L315.438,256.033L315.961,257.675L305.438,262.247L304.073,258.103ZM313.51,315.915C312.221,315.914 310.851,315.793 309.202,315.536C308.061,315.356 306.955,315.099 305.783,314.826C305.255,314.704 304.715,314.579 304.158,314.457L303.137,314.235L304.653,311.048L305.283,311.17C308.203,311.733 310.873,312.008 313.445,312.008C316.067,312.007 318.517,311.725 320.936,311.143L322.839,310.686L321.842,312.37C321.013,313.773 318.586,315.238 317.052,315.561C315.927,315.799 314.768,315.915 313.51,315.915M320.752,205.22C320.926,205.921 321.063,206.476 321.566,206.879C322.669,207.768 323.957,208.803 324.177,210.538C325.432,210.342 326.685,210.131 327.957,209.916L328.066,209.898C327.468,208.157 326.744,206.988 325.721,206.084C325.338,205.746 324.849,205.441 324.308,205.205C324.088,205.11 323.82,205.049 323.536,204.984C323.183,204.904 322.783,204.812 322.399,204.634C322.245,204.561 322.094,204.528 321.927,204.528C321.631,204.528 321.296,204.635 320.942,204.75C320.846,204.781 320.751,204.811 320.656,204.84C320.69,204.966 320.721,205.093 320.752,205.22M333.733,223.962C333.695,221.574 332.486,219.668 329.828,217.729L329.102,217.2L331.174,214.792C330.892,214.595 330.611,214.397 330.33,214.199C329.672,213.735 329.013,213.519 328.255,213.519C328.173,213.519 328.089,213.522 328.004,213.527C327.434,213.561 326.862,213.571 326.289,213.571C325.865,213.571 325.441,213.566 325.016,213.56C324.821,213.557 324.625,213.555 324.428,213.553L324.393,213.72C324.22,214.517 324.054,215.289 323.905,216.064C324.753,216.997 325.172,218.088 325.579,219.143C325.698,219.452 325.817,219.762 325.947,220.065C325.992,220.171 326.099,220.286 326.17,220.328C326.441,220.485 326.727,220.617 327.013,220.75C327.325,220.894 327.636,221.04 327.934,221.209C328.344,221.442 328.814,221.612 329.31,221.791C330.331,222.16 331.478,222.576 332.294,223.65C332.769,223.754 333.245,223.857 333.733,223.962M332.361,215.62C332.604,215.838 332.853,216.051 333.099,216.263C334.024,217.057 334.981,217.878 335.616,218.939C336.405,220.26 337.466,222.284 337.562,224.586C337.586,225.162 337.776,225.625 338.177,226.09L338.539,226.506C339.248,227.315 339.981,228.152 340.476,229.148C341.017,230.236 341.693,230.803 342.713,231.014C342.846,230.829 342.965,230.644 342.974,230.566C342.962,230.437 342.634,229.969 342.438,229.69C342.241,229.409 342.028,229.136 341.816,228.863C341.062,227.893 340.207,226.793 339.988,225.298C339.706,223.369 338.941,221.495 337.651,219.568C337.43,219.239 337.23,219.014 337.039,218.877C335.897,218.071 334.748,217.275 333.599,216.479C333.187,216.193 332.774,215.906 332.361,215.62M254.428,223.121C254.364,223.139 254.255,223.181 254.092,223.274L253.571,223.572C252.791,224.017 251.984,224.476 251.242,224.977C250.948,225.176 250.674,225.486 250.545,225.767C249.811,227.367 249.192,228.84 248.654,230.272C248.315,231.174 248.026,232.102 247.72,233.085C247.697,233.158 247.674,233.232 247.651,233.306L251.273,233.027L251.378,232.527C251.596,231.492 251.805,230.494 252.027,229.5C252.112,229.118 252.268,228.757 252.477,228.458C252.761,228.053 253.052,227.651 253.344,227.25C253.775,226.657 254.206,226.064 254.611,225.454C254.67,225.366 254.728,225.141 254.722,224.883C254.716,224.523 254.646,224.143 254.571,223.739L254.521,223.46C254.49,223.286 254.455,223.181 254.428,223.121M240.851,251.491C240.821,251.531 240.799,251.57 240.786,251.606C240.363,252.848 239.972,253.995 240.271,255.235C240.572,256.481 240.935,257.215 242.078,257.765C242.787,258.106 243.535,258.279 244.301,258.279C245.03,258.279 245.804,258.122 246.601,257.814C248.596,257.041 250.573,256.071 252.485,255.134C253.374,254.697 254.265,254.26 255.16,253.84C255.311,253.77 255.461,253.69 255.613,253.61C256.146,253.329 256.75,253.011 257.431,252.98L257.573,252.974C258.235,252.945 258.9,252.915 259.562,252.915C260.806,252.915 262.44,253.004 264.069,253.698C264.072,253.699 264.074,253.7 264.076,253.701L264.103,253.27C264.177,252.035 264.25,250.816 264.344,249.601C264.367,249.307 264.311,249.16 264.103,248.971C263.235,248.178 262.379,247.37 261.523,246.56L259.99,245.117L261.123,243.771L264.75,245.43C264.916,245.045 265.081,244.677 265.287,244.316C265.362,244.183 265.373,244.119 265.375,244.104C265.369,244.104 265.312,244.019 265.079,243.859C264.978,243.79 264.872,243.721 264.764,243.651C264.165,243.261 263.486,242.82 263.2,242.1C262.582,240.544 261.887,238.795 262.241,236.845C262.322,236.397 262.377,235.942 262.434,235.488C262.538,234.655 262.644,233.793 262.898,232.954C263.691,230.33 265.208,228.436 267.408,227.326C267.743,227.156 267.869,227.093 267.641,226.456C266.882,224.346 266.607,222.058 266.752,219.04C266.768,218.726 266.786,218.334 266.945,217.953C268.37,214.548 270.429,212.075 273.242,210.392C273.552,210.206 273.86,210.015 274.194,209.806C273.182,208.232 273.241,206.493 273.293,204.932C273.296,204.829 273.3,204.724 273.303,204.62L273.135,204.707C272.008,205.297 270.894,205.879 269.767,206.433C269.152,206.734 268.705,207.144 268.313,207.762C267.529,209.002 266.644,210.299 265.443,211.967C265.108,212.433 264.572,212.815 264.045,212.965C262.027,213.543 260.391,214.095 259.231,215.479C258.995,215.761 258.72,215.993 258.435,216.152C257.948,216.424 257.657,216.772 257.456,217.221C257.545,217.142 257.637,217.064 257.731,216.989C258.382,216.467 259.112,216.089 259.817,215.724C260.106,215.574 260.396,215.424 260.678,215.265L261.308,214.907L262.389,216.327L261.654,216.842C260.256,217.738 258.904,218.815 258.483,220.608C258.399,220.967 258.247,221.347 258.032,221.737C257.983,221.826 257.965,221.859 258.127,222.201C258.525,223.042 258.839,223.201 259.279,223.201C259.34,223.201 259.404,223.198 259.47,223.191C259.569,223.18 259.671,223.175 259.774,223.175C260.13,223.175 260.511,223.237 260.873,223.354C261.032,223.406 261.183,223.43 261.336,223.43C261.625,223.43 261.931,223.341 262.3,223.15C262.751,222.916 263.212,222.7 263.698,222.471L265.89,221.425L265.542,223.07C265.102,225.147 263.65,226.217 262.369,227.161L262.16,227.315C261.576,227.748 260.829,227.761 260.169,227.772C260.004,227.775 259.84,227.777 259.686,227.788C259.442,227.805 259.199,227.81 258.955,227.81L258.052,227.802C257.924,227.802 257.797,227.804 257.67,227.808C257.593,227.811 257.537,227.815 257.495,227.818C257.167,228.241 256.8,228.613 256.445,228.975C255.7,229.732 255.056,230.386 254.851,231.35C254.762,231.768 254.646,232.183 254.53,232.595C254.208,233.741 253.93,234.73 254.233,235.792C254.369,236.267 254.439,236.74 254.507,237.197C254.566,237.594 254.623,237.967 254.716,238.319C254.803,238.643 254.979,238.965 255.166,239.135C255.864,239.773 256.619,240.392 257.349,240.989C257.641,241.228 258.781,242.172 258.781,242.172L257.868,243.629L257.183,243.254C256.892,243.094 256.591,242.945 256.291,242.797C255.549,242.428 254.78,242.046 254.103,241.499C253.359,240.898 252.396,239.937 252.036,238.77C251.816,238.059 251.423,237.927 250.557,237.695C250.294,237.625 250.031,237.554 249.776,237.46C249.535,237.37 249.281,237.281 249.05,237.24C248.873,237.208 248.731,237.179 248.596,237.179C247.655,237.441 246.75,237.742 245.776,238.104C245.738,238.12 245.658,238.189 245.63,238.238C244.601,240.056 244.107,241.874 244.121,243.799C244.127,244.684 244.125,245.57 244.124,246.479L244.123,246.692C244.257,246.665 244.394,246.643 244.536,246.625C244.602,246.617 244.678,246.613 244.757,246.613C245.039,246.613 245.726,246.671 246.028,247.208C246.269,247.636 246.655,247.744 247.374,247.913L247.666,247.983C249.462,248.431 251.253,248.903 253.043,249.376L255.864,250.117L255.488,251.864L254.731,251.763C254.19,251.69 253.648,251.624 253.106,251.558C251.854,251.405 250.561,251.247 249.289,251.012C248.838,250.929 248.389,250.887 247.955,250.887C247.102,250.887 246.284,251.043 245.454,251.364C245.355,251.402 245.237,251.501 245.202,251.561C244.555,252.656 244.16,253.604 244.332,254.67C244.429,255.274 244.244,255.678 244.071,255.91C243.896,256.146 243.555,256.445 242.923,256.529L242.344,256.607L242.077,256.087C241.278,254.534 240.871,253.016 240.851,251.491M274.109,240.506C272.946,241.708 271.716,242.815 270.454,243.797C269.06,244.882 268.086,246.431 267.638,248.278C267.019,250.828 267.055,252.812 267.752,254.523C267.887,254.853 267.973,255.175 268.056,255.486C268.212,256.071 268.336,256.534 268.724,256.909C270.027,258.17 271.431,259.159 273.016,259.933C273.364,260.101 273.78,260.211 274.187,260.241C274.555,260.268 274.92,260.281 275.284,260.281C277.079,260.281 278.832,259.987 280.912,259.546C281.975,259.321 283.116,259.113 284.269,259.113C285.168,259.113 285.979,259.237 286.746,259.492C287.334,259.687 287.859,259.782 288.352,259.782C288.967,259.782 289.518,259.632 290.038,259.323L290.342,259.145C291.268,258.606 292.067,258.141 292.262,257.193L292.414,256.464C292.633,255.419 292.859,254.338 293.017,253.278C293.313,251.293 291.575,248.275 289.199,247.715C287.634,247.345 286.091,247.157 284.614,247.157C282.877,247.157 281.214,247.403 279.53,247.908L275.842,249.02L275.13,247.546C276.14,246.847 277.234,246.187 278.574,245.469C278.796,245.351 279.016,245.221 279.237,245.09C279.956,244.665 280.699,244.226 281.561,244.086C281.887,244.033 282.215,243.976 282.543,243.919C283.987,243.67 285.48,243.413 286.996,243.413C287.865,243.413 288.661,243.497 289.427,243.668C289.61,243.708 289.788,243.729 289.957,243.729C290.58,243.729 291.141,243.461 291.892,242.805C292.155,242.574 292.391,242.237 292.523,241.901C293.312,239.901 293.043,237.923 292.353,235.379C292.008,234.112 291.675,232.747 291.569,231.361C291.474,230.126 291.666,228.896 291.868,227.855C292.184,226.218 292.6,224.551 293.707,223.227L293.896,220.918C294.082,218.635 292.917,216.91 291.684,215.083C291.247,214.436 290.795,213.767 290.4,213.065L289.175,210.892L292.499,212.363C292.221,211.061 292.559,209.799 292.869,208.642C292.9,208.526 292.932,208.41 292.962,208.294L292.515,208.111C291.481,207.688 290.483,207.281 289.488,206.869C289.193,206.75 288.794,206.591 288.595,206.184C288.309,205.604 288.362,204.896 288.738,204.293C289.13,203.663 289.795,203.271 290.474,203.271C290.533,203.271 290.591,203.274 290.651,203.28L291.929,203.409C291.347,202.506 290.626,201.851 289.69,201.357C289.422,201.216 289.156,201.072 288.89,200.928C288.293,200.606 287.697,200.283 287.085,199.993C286.976,199.94 286.821,199.908 286.682,199.908C286.643,199.908 286.604,199.911 286.568,199.916C283.623,200.394 280.578,201.381 276.987,203.019C276.931,203.045 276.875,203.082 276.841,203.11C276.374,204.744 276.233,205.944 276.821,206.991C276.953,206.762 277.081,206.532 277.199,206.296C277.632,205.432 278.254,204.959 279.155,204.809C279.573,204.739 279.994,204.616 280.439,204.485C280.868,204.359 281.311,204.229 281.776,204.141C282.027,204.094 282.18,204 282.422,203.567C282.633,203.191 282.872,202.829 283.138,202.427C283.253,202.254 283.374,202.072 283.5,201.877L284.302,200.634C284.302,200.634 285.278,202.662 285.337,202.79C285.785,203.766 285.867,204.577 285.588,205.268C285.312,205.95 284.709,206.466 283.743,206.845C283.532,206.927 282.657,207.257 282.433,207.346C282.227,207.428 282.018,207.506 281.81,207.585C280.836,207.952 279.917,208.298 279.213,208.977C278.785,209.391 278.742,209.61 278.743,209.685C278.746,209.828 278.901,210.045 279.169,210.283C279.425,210.51 281.806,212.653 281.806,212.653L279.324,212.908C278.948,212.944 278.629,212.975 278.311,213.018L277.826,213.08C276.853,213.203 275.934,213.318 275.093,213.764C272.911,214.921 271.657,216.079 270.9,217.636C270.83,217.779 270.747,217.92 270.662,218.06C270.577,218.2 270.46,218.392 270.45,218.474C270.148,220.832 270.722,222.941 272.206,224.921C272.302,225.049 272.426,225.185 272.491,225.185C272.521,225.185 272.613,225.176 272.803,225.091C273.423,224.817 274.058,224.58 274.672,224.35C274.935,224.252 275.196,224.154 275.457,224.053L276.357,225.395C275.036,226.79 273.567,228.188 271.734,229.794L271.221,230.241C269.64,231.611 268.145,232.906 267.427,234.815C267.345,235.036 267.228,235.251 267.11,235.464C267.001,235.664 266.876,235.888 266.868,236.009C266.687,238.533 267.176,240.256 268.454,241.594C268.486,241.628 268.514,241.654 268.535,241.675C268.552,241.666 268.571,241.656 268.594,241.643C269.671,241.023 270.782,240.438 271.857,239.871L273.123,239.199L274.109,240.506ZM323.598,267.636C323.997,267.662 324.394,267.682 324.793,267.702C326.755,267.804 328.784,267.909 330.755,268.61C331.759,268.967 332.887,269.134 334.306,269.134C334.73,269.134 335.155,269.12 335.581,269.099C335.652,269.095 335.82,269.032 335.95,268.922C336.623,268.355 337.29,267.78 337.957,267.205C338.986,266.316 340.05,265.399 341.127,264.525C341.681,264.076 342.427,263.735 343.231,263.565L343.457,263.518C344.856,263.222 346.176,262.943 347.423,262.316C349.529,261.257 350.621,259.885 350.96,257.872C351.248,256.172 350.89,254.729 349.975,253.831C349.801,253.911 349.627,253.991 349.456,254.071C348.702,254.421 347.922,254.783 347.091,254.996C346.332,255.192 345.562,255.243 344.819,255.292C344.42,255.318 344.022,255.345 343.628,255.395C343.317,255.434 342.997,255.461 342.675,255.487C341.887,255.553 341.141,255.613 340.565,255.888C338.65,256.798 336.84,257.951 335.09,259.066C334.637,259.355 334.197,259.663 333.756,259.971C332.143,261.101 330.476,262.268 328.211,262.517C327.859,262.556 327.502,262.574 327.12,262.574C326.331,262.574 325.567,262.493 324.828,262.414C324.828,262.414 324.256,262.355 324.248,262.355L324.209,262.355C323.102,264.009 322.615,265.786 322.732,267.756C322.965,267.684 323.213,267.632 323.475,267.632L323.598,267.636ZM309.919,266.437L309.04,267.205C308.833,267.383 308.627,267.562 308.427,267.746L307.945,268.184C305.556,270.358 303.085,272.606 301.344,275.372C300.895,276.088 300.505,276.851 300.188,277.64C299.793,278.62 299.425,279.58 299.239,280.548C299.134,281.088 299.001,281.626 298.869,282.166C298.425,283.953 298.007,285.641 298.738,287.335C298.887,287.679 298.986,288.023 299.081,288.355L299.153,288.606C299.643,290.251 300.085,291.736 301.386,292.639C301.453,292.684 301.52,292.736 301.589,292.788C301.678,292.854 301.813,292.955 301.868,292.976C303.879,293.127 306.026,293.261 308.378,293.374C308.391,293.372 308.509,293.335 308.697,293.209C312.858,290.427 317.64,287.119 321.732,283.077C322.768,282.053 324.22,280.801 326.261,280.203C327.542,279.829 328.829,279.336 330.073,278.861C330.629,278.648 331.187,278.435 331.747,278.23L332.457,277.972L333.097,279.326L332.529,279.849L328.015,282.624C328.536,282.726 329.05,282.839 329.557,282.95C331.207,283.311 332.766,283.653 334.39,283.653C334.682,283.653 334.976,283.642 335.273,283.617L335.852,283.57C338.152,283.387 340.324,283.214 342.192,281.92C342.471,281.727 342.774,281.591 343.041,281.471C343.321,281.346 343.609,281.215 343.726,281.078L344.082,280.661C345.168,279.395 346.195,278.2 346.237,276.54C346.264,275.424 346.832,274.496 347.877,273.856C348.567,273.434 349.216,272.954 349.904,272.445L350.387,272.088C351.67,271.146 352.291,269.682 352.771,268.239C353.291,266.674 352.99,265.119 352.551,263.37C352.371,263.691 352.109,264.086 351.69,264.293C351.218,264.528 350.751,264.775 350.286,265.023C348.615,265.911 346.888,266.829 344.87,267.157C342.901,267.477 341.354,268.349 340.272,269.747C339.015,271.369 337.225,271.701 335.639,271.811C334.774,271.872 333.863,271.901 332.932,271.901C331.707,271.901 330.443,271.851 329.068,271.748C328.677,271.719 328.291,271.704 327.909,271.704C326.972,271.704 326.087,271.794 325.205,271.98C323.52,272.334 321.778,272.7 320.388,273.833C320.007,274.142 319.601,274.382 319.209,274.615C318.817,274.848 318.446,275.067 318.147,275.329C317.009,276.324 315.892,277.395 314.812,278.43L313.885,279.316C313.877,279.334 313.813,279.497 313.786,279.556L313.058,281.093C312.453,282.375 311.848,283.657 311.232,284.934L311.182,285.043C311.059,285.327 310.732,286.078 309.87,286.078C309.639,286.078 309.404,286.021 309.149,285.907L308.474,285.6L308.705,284.894C308.955,284.128 309.167,283.321 309.372,282.541C309.946,280.36 310.54,278.106 312.061,276.147C312.363,275.761 312.631,275.339 312.917,274.893C313.398,274.144 313.894,273.368 314.571,272.726C315.795,271.564 317.458,270.125 319.511,269.248C319.391,267.135 319.371,264.669 320.052,262.277C320.181,261.826 320.136,261.609 319.616,261.216C318.399,260.295 317.676,259.09 317.409,257.532C317.301,256.904 317.245,256.214 317.552,255.431C317.878,254.602 318.175,253.764 318.472,252.924C318.687,252.314 318.903,251.705 319.129,251.101C320.044,248.654 320.073,246.667 319.216,244.847C318.979,244.34 318.803,243.819 318.633,243.315C318.291,242.302 317.968,241.345 317.187,240.69C316.66,240.248 316.194,239.758 315.802,239.235C315.516,238.851 315.161,238.257 315.086,237.605C314.973,236.606 314.899,235.595 314.828,234.616C314.79,234.097 314.752,233.577 314.709,233.058C314.696,232.9 314.658,232.75 314.607,232.649C314.169,231.769 313.718,230.896 313.25,230.033C312.84,229.277 312.356,228.248 312.252,226.997C312.021,224.175 312.046,221.29 312.332,218.424C312.604,215.674 312.604,215.674 310.51,213.902L310.388,213.803C310.244,213.688 310.065,213.546 309.909,213.354L309.789,213.206C309.558,212.929 309.298,212.614 309.14,212.209L308.891,211.579C308.529,210.669 308.154,209.728 307.934,208.735C307.88,208.495 307.821,208.252 307.76,208.01C307.357,206.383 306.853,204.358 308.627,202.776L309.696,201.823L309.99,203.224C310.088,203.693 310.185,204.172 310.284,204.658C310.523,205.841 310.77,207.064 311.066,208.266C311.25,209.016 311.462,209.791 311.858,210.328C312.841,211.662 313.858,212.887 315.485,213.238C316.042,213.358 316.944,213.774 316.718,215.206L316.575,216.101C316.357,217.452 316.131,218.847 316.033,220.21C315.86,222.6 316.074,224.776 316.689,226.863C317.082,228.194 317.844,229.302 318.654,230.474L324.582,227.779L325.959,231.284L325.166,231.576C324.58,231.792 324.003,232.009 323.434,232.226C322.047,232.75 320.737,233.247 319.371,233.681C318.381,233.995 318.145,234.244 318.103,235.014C318.057,235.863 318.152,236.265 318.509,236.733C319.561,238.105 320.631,239.617 321.981,241.631C323.764,244.296 324.293,246.816 323.597,249.336C323.175,250.864 322.638,252.444 322,254.031C321.107,256.257 321.263,257.504 322.577,258.628C322.697,258.73 322.776,258.84 322.83,258.916L322.857,258.934C322.944,258.99 323.076,259.074 323.128,259.089C323.49,259.135 323.872,259.16 324.247,259.16C326.866,259.16 329.145,257.967 331.028,256.8C331.631,256.426 332.199,255.997 332.801,255.545C334.135,254.54 335.514,253.501 337.323,253.065C337.768,252.958 338.207,252.803 338.674,252.638C339.149,252.472 339.638,252.298 340.151,252.172C340.524,252.08 340.898,251.98 341.271,251.881C342.596,251.529 343.966,251.164 345.373,251.103C346.773,251.042 347.33,250.771 347.755,249.944C347.877,249.707 348.029,249.498 348.162,249.312C348.3,249.12 348.457,248.902 348.482,248.773C348.769,247.266 348.262,245.883 347.414,244.268C347.395,244.232 347.369,244.195 347.337,244.156C347.308,244.188 347.28,244.22 347.252,244.252C346.748,244.825 346.272,245.365 345.732,245.87C345.635,245.959 345.602,246.012 345.592,246.03C345.598,246.034 345.615,246.097 345.682,246.226C345.839,246.522 346.165,247.5 345.606,248.066C345.393,248.28 344.954,248.721 344.27,248.722C343.953,248.722 343.629,248.623 343.307,248.43C342.208,247.769 341.012,247.193 339.856,246.636L339.341,246.388C339.282,246.36 339.162,246.327 339.014,246.327C338.969,246.327 338.924,246.33 338.882,246.336C337.029,246.645 334.899,247.067 333.084,248.172C332.55,248.497 332.156,248.807 331.879,249.119C330.982,250.129 330.125,251.147 329.218,252.226L327.641,254.092L325.014,252.01L325.438,251.374C325.645,251.064 325.855,250.764 326.061,250.469C326.505,249.834 326.924,249.235 327.256,248.61C327.866,247.468 328.784,246.793 329.672,246.199L330.125,245.893C330.506,245.635 330.888,245.376 331.28,245.134L331.713,244.862C333.46,243.766 335.267,242.631 337.519,242.631C338.034,242.631 338.558,242.692 339.077,242.813C339.343,242.876 339.666,242.877 340.008,242.88C340.515,242.882 341.088,242.886 341.638,243.094C341.912,243.199 342.161,243.249 342.397,243.249C343.053,243.249 343.605,242.856 344.337,242.176C344.445,242.076 344.561,241.98 344.678,241.885C344.847,241.749 345.037,241.595 345.09,241.491C345.517,240.657 344.989,237.73 344.273,236.955C342.851,235.415 341.367,234.324 339.734,233.619C339.178,233.378 338.644,232.959 338.266,232.467C337.901,231.993 337.59,231.49 337.29,231.005C337.124,230.737 336.959,230.47 336.787,230.209C336.412,229.646 335.951,229.176 335.399,228.75C336.178,230.388 336.772,232.117 336.306,234.152C336.902,234.429 337.571,234.715 338.241,235.002C338.622,235.164 339,235.327 339.378,235.495C340.058,235.794 340.735,236.104 341.413,236.414L342.229,236.788L341.916,238.369C341.763,238.375 341.599,238.378 341.426,238.378C337.81,238.378 328.98,237.051 327.434,236.121L325.439,234.921L332.278,233.941C332.319,231.79 331.433,229.874 330.498,227.852C330.33,227.49 330.162,227.126 329.998,226.762C329.966,226.739 329.931,226.719 329.898,226.699C329.488,226.442 329.126,226.222 328.766,226.002C328.302,225.719 327.839,225.435 327.38,225.144C326.339,224.482 325.46,223.922 324.4,223.922C324.262,223.922 324.121,223.932 323.975,223.952C323.607,224.002 323.215,224.026 322.743,224.026C322.427,224.026 322.11,224.015 321.792,224.005C321.496,223.995 321.197,223.984 320.9,223.984L318.409,223.984L320.404,222.493C320.949,222.085 321.497,221.841 322.081,221.745C322.101,221.742 322.118,221.738 322.131,221.735C322.152,221.64 322.169,221.478 322.179,221.382C322.28,220.45 321.9,219.65 321.458,218.725C321.313,218.418 321.167,218.113 321.04,217.802C320.85,217.343 320.287,216.852 319.983,216.589C319.649,216.298 319.251,216.047 318.83,215.782C318.629,215.656 318.428,215.529 318.23,215.395L317.669,215.02L318.745,212.374L321.054,213.41C320.99,212.732 320.918,212.093 320.709,211.54C320.434,210.808 319.947,210.122 319.432,209.395C319.282,209.184 319.133,208.974 318.989,208.763C318.878,208.601 318.682,208.438 318.524,208.377C317.235,207.881 315.935,207.412 314.634,206.943L310.895,205.586L313.343,204.882C314.139,204.652 314.89,204.593 315.617,204.536L316.774,204.442C316.213,203.259 315.086,201.475 314.695,201.188C314.697,201.191 314.695,201.192 314.689,201.192C314.677,201.192 314.653,201.187 314.627,201.18C314.557,201.162 314.487,201.143 314.418,201.12C312.797,200.575 310.645,199.94 308.371,199.87C307.628,199.847 306.794,199.453 306.342,198.911C305.25,197.604 303.826,196.845 302.022,196.107C301.892,196.054 301.755,196.022 301.655,196.022C299.025,196.262 299.025,196.262 297.277,198.228C297.131,198.393 296.996,198.536 296.861,198.679C296.715,198.833 296.569,198.989 296.43,199.149C296.43,199.149 296.349,199.239 296.337,199.252C296.334,199.424 296.325,199.598 296.315,199.771C296.264,200.724 296.266,201.161 296.879,201.546L297.028,201.642C297.375,201.864 297.566,201.979 297.779,201.979C298.017,201.96 298.195,201.955 298.385,201.955C298.385,201.955 299.128,201.966 299.327,201.966L300.837,201.966L299.719,203.726C299.526,204.035 299.368,204.288 299.197,204.532C297.394,207.122 296.706,209.47 297.031,211.92C297.084,212.326 297.257,212.791 297.516,213.241C297.615,213.212 297.72,213.179 297.8,213.153C297.983,213.096 298.163,213.04 298.313,213.002C298.409,212.977 298.5,212.936 298.593,212.899C298.681,212.862 298.77,212.826 298.86,212.794L302.797,211.4L303.629,212.796C302.233,214.056 300.599,215.506 298.872,216.771C297.944,217.451 297.359,218.428 296.741,219.462C296.329,220.15 295.904,220.861 295.358,221.516L294.737,222.26C294.95,222.103 295.18,221.955 295.428,221.816C295.725,221.65 296.007,221.455 296.29,221.26C296.739,220.95 297.205,220.63 297.741,220.393C298.587,220.02 299.465,219.729 300.315,219.447C300.672,219.329 301.03,219.21 301.385,219.086L302.134,218.823L302.762,220.397L302.083,220.842C301.973,220.917 301.863,220.991 301.746,221.055L300.212,221.893C298.962,222.576 297.712,223.258 296.471,223.956C296.329,224.037 296.229,224.138 296.207,224.174C295.756,225.785 295.332,227.55 295.721,229.34C295.77,229.569 295.777,229.781 295.784,229.969C295.789,230.084 295.787,230.201 295.813,230.311L295.864,230.535C295.93,230.836 296,231.146 296.114,231.308C296.78,232.246 297.476,233.153 298.212,234.114L299.416,235.69L299.059,236.187C298.986,236.289 298.907,236.406 298.822,236.532C298.603,236.855 298.331,237.258 298.011,237.631C296.977,238.841 296.548,240.156 296.621,241.897C296.703,243.834 296.778,245.608 297.352,247.278C297.452,247.568 297.873,247.908 298.188,248.131C298.3,248.065 298.433,247.974 298.522,247.89C300.246,246.258 302.333,245.319 304.909,245.017C305.196,244.983 305.481,244.922 305.765,244.863C305.913,244.833 306.061,244.802 306.209,244.774L309.218,244.204L306.907,246.213C306.471,246.591 306.016,246.813 305.614,247.009L305.499,247.064C305.149,247.237 304.779,247.39 304.408,247.542C303.665,247.846 302.963,248.134 302.494,248.578C300.817,250.161 298.917,251.954 298.354,254.502C298.253,254.955 298.114,255.394 297.978,255.819C297.754,256.523 297.543,257.187 297.542,257.808C297.533,260.964 298.082,264.02 299.176,266.893C299.256,267.103 299.299,267.178 299.323,267.203C299.968,267.77 300.678,268.378 301.428,268.933C301.461,268.957 301.545,268.988 301.599,268.997L301.649,268.978C302.671,268.606 303.728,268.22 304.661,267.708C305.492,267.251 306.274,266.724 307.103,266.165C307.459,265.924 307.817,265.683 308.177,265.449L308.813,265.036L309.919,266.437ZM251.459,271.259C252.454,271.259 253.492,271.419 254.543,271.735C255.984,272.167 257.54,272.403 259.046,272.63L259.934,272.766C260.447,272.846 260.971,272.883 261.525,272.921C262.283,272.973 263.067,273.027 263.844,273.203C264.232,273.291 264.634,273.345 265.06,273.402C266.192,273.554 267.476,273.726 268.626,274.636C271.738,277.096 275.22,280.092 277.137,284.528C277.832,286.136 278.663,287.802 280.03,289.09C280.278,289.324 280.546,289.493 280.766,289.556C281.478,289.76 282.196,289.943 282.913,290.127C283.807,290.356 284.732,290.592 285.638,290.866C286.389,291.093 286.95,291.698 287.218,292.038C287.486,292.377 287.696,292.746 287.898,293.103C288.172,293.585 288.43,294.039 288.743,294.25L288.925,294.372C290.688,295.557 292.354,296.677 294.451,296.901C294.515,296.907 294.578,296.911 294.642,296.911C295.261,296.911 295.934,296.595 296.398,296.086C296.792,295.655 296.983,295.147 296.938,294.658C296.848,293.666 296.769,292.674 296.691,291.682C296.578,290.259 296.463,288.787 296.309,287.35C296.159,285.946 296.005,284.509 295.595,283.222C295.304,282.306 294.817,281.437 294.302,280.517C294.143,280.233 293.984,279.949 293.831,279.664C293.727,279.47 293.544,279.276 293.367,279.17C291.86,278.272 290.336,277.404 288.812,276.536L288.301,276.245C287.729,275.918 287.152,275.601 286.575,275.284L285.046,274.438L285.748,273.059L286.518,273.188L294.077,276.116C294.123,275.917 294.17,275.72 294.217,275.527C294.434,274.634 294.639,273.791 294.545,272.918C294.276,270.432 293.314,268.074 291.604,265.71C290.538,264.238 289.204,263.394 287.406,263.057C286.94,262.97 286.495,262.835 286.064,262.704C285.457,262.519 284.883,262.345 284.346,262.333L284.188,262.331C283.406,262.331 282.612,262.455 281.771,262.586C281.3,262.66 280.828,262.733 280.355,262.786C278.853,262.951 277.299,263.123 275.724,263.123C273.691,263.123 272.005,262.837 270.417,262.222C270.299,262.176 270.172,262.14 270.045,262.103C269.675,261.997 269.254,261.877 268.894,261.573C268.669,261.383 268.436,261.198 268.202,261.012C267.324,260.316 266.417,259.596 265.868,258.599C265.463,257.864 264.987,257.73 264.034,257.52L263.333,257.357C262.744,257.214 262.188,257.079 261.675,257.079C261.616,257.079 261.557,257.081 261.498,257.086C260.399,257.161 259.375,257.38 258.538,257.722C257.37,258.196 256.578,258.692 256.115,259.239C255.353,260.142 254.731,261.16 254.072,262.239C253.806,262.675 253.54,263.112 253.264,263.541C253.112,263.776 252.974,264.018 252.834,264.259L252.274,265.217L251.478,264.919L250.85,264.694L251.48,259.858C251.252,259.987 251.025,260.121 250.798,260.253C249.744,260.872 248.654,261.511 247.442,261.848L247.088,261.947C245.899,262.281 244.671,262.627 243.386,262.627C242.379,262.627 241.475,262.413 240.638,261.975C240.544,262.046 240.452,262.117 240.36,262.187C239.833,262.592 239.336,262.974 238.819,263.326C237.568,264.176 237.314,265.568 237.111,267.299C236.909,269.023 237.408,270.673 238.553,272.069C239.237,272.902 239.959,273.307 240.896,273.38C241.22,273.405 241.541,273.418 241.86,273.418C243.736,273.418 245.595,272.992 247.544,272.116C248.808,271.548 250.125,271.259 251.459,271.259M325.479,304.26C325.713,304.338 325.945,304.411 326.171,304.483C326.755,304.667 327.306,304.842 327.859,305.074C328.487,305.336 328.823,305.977 328.91,306.167C329.125,306.631 329.323,307.105 329.519,307.578C329.696,308.001 329.872,308.425 330.062,308.842C330.54,308.746 331.023,308.669 331.506,308.592C332.948,308.362 334.31,308.145 335.554,307.422L336.118,307.096C337.885,306.08 339.555,305.12 340.569,303.422C340.714,303.177 340.846,302.923 340.974,302.661C340.309,302.952 339.627,303.241 338.928,303.482L338.472,303.642C337.272,304.064 336.031,304.501 334.686,304.501C334.32,304.501 333.957,304.468 333.61,304.401C332.007,304.096 330.431,303.622 328.906,303.164L328.355,302.998C327.951,302.878 327.618,302.797 327.306,302.797C327.085,302.797 326.887,302.837 326.679,302.922C325.88,303.248 325.082,303.574 324.282,303.898L325.479,304.26ZM263.642,304.187C264.224,305.335 264.732,306.578 265.242,308.101C265.449,308.719 265.723,309.083 266.188,309.36C266.834,309.744 267.461,310.163 268.067,310.568C268.53,310.877 268.994,311.187 269.467,311.482C269.752,311.66 270.084,311.795 270.401,311.863C271.048,312 271.701,312.107 272.354,312.214C272.67,312.266 272.986,312.317 273.302,312.372C273.466,312.402 273.627,312.414 273.787,312.414C273.995,312.414 274.204,312.392 274.415,312.355L273.58,311.521C273.361,311.304 273.179,311.135 273.03,310.997C272.049,310.09 272.017,309.588 272.875,308.559C273.005,308.402 273.165,308.21 273.356,307.964C273.552,307.71 273.813,307.65 273.953,307.618C274,307.607 274.068,307.592 274.164,307.565L274.669,307.423L275.356,308.22C275.61,308.516 275.887,308.837 276.168,309.155C277.805,311.001 280.079,311.662 282.087,312.063C283.125,312.27 284.183,312.376 285.232,312.376C286.407,312.376 287.607,312.244 288.801,311.983C290.531,311.605 292.497,310.998 293.96,309.367L294.062,309.254C294.585,308.675 294.824,308.411 294.75,307.637C294.584,305.866 294.699,304.065 294.811,302.322C294.839,301.873 294.868,301.423 294.892,300.971C292.54,300.941 290.454,300.255 288.686,298.933C288.527,298.814 288.362,298.703 288.197,298.591C287.821,298.338 287.433,298.076 287.085,297.726C286.111,296.747 285.411,295.957 284.818,295.166C284.377,294.578 283.8,294.229 282.89,294C282.602,293.928 282.316,293.849 282.03,293.77C281.659,293.667 281.287,293.565 280.912,293.478C278.97,293.033 277.185,292.012 275.884,290.602C274.254,288.836 272.979,286.778 271.948,284.997C271.684,284.542 271.441,284.077 271.2,283.613C270.396,282.069 269.637,280.611 268.11,279.68C267.199,279.125 266.205,278.916 265.153,278.696C264.756,278.612 264.359,278.528 263.963,278.427C263.692,278.541 263.464,278.633 263.236,278.724C262.058,279.196 260.945,279.642 260.106,280.499C259.925,280.685 259.727,280.817 259.552,280.932C259.49,280.973 259.427,281.015 259.364,281.06L257.753,282.228L258.059,280.263C258.322,278.573 259.246,277.525 260.359,276.796C260.149,276.727 259.934,276.659 259.708,276.591C259.197,276.435 258.686,276.271 258.175,276.107C255.987,275.404 253.92,274.741 251.681,274.728L251.68,274.728C250.757,274.728 250.02,274.844 249.307,275.091C249.083,275.169 248.86,275.25 248.636,275.332C247.741,275.659 246.815,275.996 245.831,276.118C244.479,276.284 243.109,276.364 241.783,276.44C240.977,276.487 240.172,276.533 239.368,276.6C239.286,276.606 239.123,276.692 239.069,276.757C238.611,277.307 238.451,277.773 238.55,278.268C238.593,278.482 238.629,278.7 238.665,278.917C238.755,279.457 238.84,279.966 239.028,280.384C239.512,281.455 240.143,282.51 240.753,283.529L240.882,283.744C240.876,283.733 240.881,283.729 240.892,283.729C240.916,283.729 240.973,283.751 241.012,283.755C241.665,283.845 242.319,283.916 242.974,283.987C243.606,284.056 244.238,284.124 244.868,284.208C245.835,284.338 246.799,284.49 247.793,284.648L247.991,284.679L247.97,284.524C247.843,283.612 247.721,282.735 247.583,281.86C247.435,280.922 247.349,280.376 247.712,279.883C248.079,279.387 248.646,279.304 249.586,279.169L249.645,279.16L249.894,279.159L250.118,279.258L250.512,279.417L250.671,279.856L250.736,280.129C250.787,280.344 250.841,280.576 250.904,280.806C251.013,281.208 251.103,281.619 251.192,282.03C251.383,282.907 251.564,283.736 251.927,284.432C252.571,285.664 253.412,286.853 254.226,288.002C254.502,288.393 254.778,288.784 255.049,289.177C255.224,289.433 255.45,289.654 255.667,289.784C256.865,290.5 258.091,291.163 259.024,291.661C259.14,291.722 259.292,291.763 259.406,291.763C259.88,291.733 260.33,291.685 260.779,291.637C261.321,291.58 261.864,291.522 262.408,291.494C262.579,291.486 262.637,291.456 262.644,291.453C262.643,291.451 262.687,291.384 262.722,291.162C262.9,290.014 263.11,288.898 263.334,287.715L263.754,285.448L267.34,286.177L266.918,288.497C266.64,290.021 266.369,291.502 266.116,292.986C266.077,293.215 266.104,293.393 266.133,293.456C267.296,296.071 268.739,298.033 270.544,299.456C270.731,299.603 270.917,299.762 271.106,299.922C271.645,300.381 272.203,300.856 272.703,300.96C273.536,301.133 274.47,301.214 275.641,301.214C276.183,301.214 276.724,301.197 277.261,301.176C278.401,301.131 279.575,300.98 280.711,300.835C281.226,300.77 281.741,300.705 282.256,300.647L282.881,300.578L283.404,301.891L280.518,304.058C280.866,304.317 281.184,304.545 281.518,304.734C282.072,305.047 282.678,305.274 283.413,305.539C283.872,305.705 284.342,305.839 284.829,305.978C285.061,306.046 285.296,306.113 285.536,306.185L285.34,307.806C285.142,307.816 284.945,307.821 284.751,307.821C282.964,307.821 281.379,307.381 279.907,306.475C278.63,305.687 277.513,305.164 276.214,305.164C276.138,305.164 276.061,305.165 275.984,305.17C275.824,305.177 275.665,305.181 275.507,305.181C273.306,305.181 271.213,304.434 269.11,302.896C268.312,302.312 267.408,301.651 266.697,300.707C266.319,300.206 265.926,299.716 265.534,299.226C264.845,298.367 264.133,297.478 263.507,296.532C262.9,295.615 262.3,295.275 261.295,295.275C261.197,295.275 261.097,295.278 260.993,295.285L260.686,295.303C259.957,295.349 259.429,295.381 259.282,295.5C259.102,295.645 258.88,296.289 258.624,297.035C258.395,297.7 258.147,298.358 257.885,299.053L256.974,301.496L255.68,299.729C255.432,299.388 255.217,299.091 254.993,298.803C254.782,298.533 254.141,297.71 254.607,296.548C254.759,296.169 254.877,295.768 255.001,295.344C255.113,294.964 255.226,294.584 255.362,294.213C255.397,294.118 255.406,294.068 255.408,294.048C255.398,294.045 255.355,293.994 255.245,293.905C253.593,292.584 251.885,291.149 250.166,289.638C249.071,288.676 247.758,288.134 246.262,288.026C244.799,287.922 243.353,287.898 241.823,287.873C241.602,287.869 241.38,287.866 241.158,287.862C241.377,288.273 241.598,288.671 241.838,289.059C242.585,290.263 243.783,291.028 245.724,291.541C246.149,291.654 246.576,291.76 247.002,291.866C248.892,292.337 250.846,292.823 252.643,293.837C253.075,294.081 253.425,294.394 253.764,294.696C253.897,294.814 254.03,294.934 254.167,295.045L254.803,295.563L253.697,296.949L253.124,296.715C251.236,295.946 249.114,295.521 246.635,295.415C244.247,295.313 242.334,293.876 240.939,292.826C240.586,292.561 240.256,292.277 239.942,291.983C241.203,295.045 243.873,298.151 246.129,299.384L246.722,297.198L249.256,297.198L249.34,297.933C249.384,298.326 249.42,298.714 249.455,299.096C249.53,299.914 249.602,300.684 249.752,301.428C250.041,302.844 250.8,303.889 252.215,304.815C255.166,306.747 257.83,307.795 260.599,308.116C260.643,308.121 260.686,308.123 260.73,308.123C261.081,308.123 261.437,307.966 261.707,307.692C261.946,307.449 262.082,307.141 262.077,306.85C262.069,306.323 262.071,305.795 262.073,305.268L262.075,304.561L263.642,304.187ZM328.817,315.454C329.265,315.454 329.704,315.451 330.141,315.444C331.765,315.416 333.298,314.947 334.922,314.45C335.505,314.272 336.086,314.094 336.673,313.936C336.662,313.934 336.698,313.903 336.734,313.875L336.825,313.808C339.103,312.17 341.685,310.316 343.547,307.867C343.721,307.638 343.915,307.42 344.112,307.204C344.403,306.881 344.678,306.576 344.829,306.265C346.198,303.423 347.37,300.856 348.412,298.418C348.454,298.32 348.496,298.224 348.54,298.126C348.026,298.545 347.458,298.931 346.834,299.287C346.225,299.634 345.682,299.952 345.206,300.331C345.046,300.457 344.895,300.684 344.835,300.882C344.752,301.161 344.701,301.473 344.646,301.803C344.548,302.393 344.447,303.004 344.147,303.58L343.926,304.005C342.859,306.062 341.755,308.189 339.737,309.722C339.574,309.847 339.419,309.997 339.265,310.145C338.892,310.505 338.469,310.912 337.896,311.101C337.506,311.229 337.117,311.365 336.727,311.502C334.932,312.129 333.078,312.777 331.048,312.777C330.701,312.777 330.351,312.758 330.012,312.719L329.997,312.719C329.339,313.605 328.697,314.506 328.024,315.451L328.817,315.454ZM301.104,297.357C300.75,298.256 300.29,299.059 299.845,299.809C299.1,301.066 298.634,302.532 298.312,303.668C297.993,304.796 298.059,305.808 298.515,306.763C299.123,308.04 299.901,308.747 301.036,309.059C301.279,309.125 301.479,309.234 301.671,309.339C301.748,309.381 301.831,309.426 301.923,309.473L303.299,310.15L301.978,310.929C301.696,311.095 301.401,311.237 301.116,311.373C300.681,311.58 300.233,311.795 300.1,312.009C299.928,312.284 299.907,312.806 299.886,313.311C299.873,313.603 299.86,313.896 299.826,314.173C299.818,314.347 299.812,314.445 299.795,314.54C299.632,315.487 300.124,316.363 300.651,316.777C301.943,317.793 303.342,318.807 304.977,319.069C305.546,319.16 306.116,319.245 306.686,319.33C307.793,319.494 308.938,319.663 310.063,319.884C310.736,320.016 311.431,320.081 312.13,320.081C313.545,320.081 315.008,319.804 316.363,319.278C319.382,318.104 321.415,316.818 322.953,315.107C324.221,313.694 325.53,312.16 326.364,310.292C326.393,310.225 326.419,310.173 326.438,310.128C326.274,309.628 326.18,309.117 326.087,308.622C325.884,307.521 325.708,306.57 324.827,305.967C324.526,305.764 324.462,305.462 324.436,305.333L324.036,303.998C322.332,304.69 320.627,305.378 318.922,306.066C316.049,307.226 313.176,308.386 310.31,309.561C308.439,310.329 306.525,310.404 304.674,310.477L304.111,310.5L303.695,308.937C303.993,308.782 304.314,308.677 304.705,308.607C306.457,308.29 308.154,307.922 309.628,306.903C310.588,306.24 311.666,305.637 312.923,305.061C314.447,304.363 315.981,303.686 317.514,303.01C319.299,302.222 321.146,301.407 322.941,300.573C325.178,299.531 326.67,297.882 327.373,295.672C327.434,295.483 327.429,295.209 327.419,294.992L327.411,294.823C327.385,294.257 327.361,293.723 327.26,293.221C327.151,292.68 326.996,292.227 326.796,291.876C326.451,291.27 326.066,290.692 325.62,290.022C325.421,289.727 325.217,289.42 325.005,289.093L323.802,287.244L326.28,287.943C327.749,288.351 329.271,288.77 329.943,290.563C329.98,290.662 330.078,290.796 330.181,290.937C330.299,291.1 330.416,291.264 330.51,291.439L330.616,291.627C330.808,291.963 331.046,292.38 331.086,292.871C331.239,294.761 331.01,296.257 330.365,297.577C330.149,298.017 329.991,298.501 329.823,299.013L329.777,299.151C329.903,299.267 330.027,299.388 330.152,299.509C330.622,299.964 331.107,300.435 331.523,300.523C332.219,300.671 332.938,300.749 333.602,300.749C334.289,300.749 334.915,300.669 335.463,300.51C337.079,300.041 338.768,299.26 340.625,298.12C342.26,297.117 344.363,295.749 346.136,294.071C349.506,290.878 351.681,287.951 352.98,284.857C353.091,284.591 353.207,284.326 353.322,284.06C354.2,282.035 355.03,280.121 354.389,277.976C354.288,277.634 354.277,277.297 354.268,277C354.261,276.79 354.254,276.529 354.203,276.434C353.792,275.662 353.299,274.925 352.822,274.213C352.809,274.195 352.797,274.176 352.785,274.158C352.761,274.178 352.738,274.198 352.714,274.218C352.12,274.728 351.559,275.209 350.927,275.646C349.974,276.307 349.444,277.014 349.156,278.01C348.816,279.191 348.596,280.104 348.866,281.101C349.038,281.74 349.109,282.382 349.178,283.004C349.207,283.266 349.236,283.527 349.273,283.788L349.34,284.263L348.148,285.192L346.623,283.331C346.601,283.349 346.581,283.367 346.559,283.384C346.115,283.752 345.73,284.07 345.383,284.408C344.447,285.322 343.394,285.907 342.165,286.196C340.327,286.629 340.327,286.629 339.915,288.494C339.796,289.034 339.678,289.523 339.56,290.014L339.385,290.741L337.769,290.722C337.55,289.692 337.397,288.617 337.27,287.236C337.253,287.059 337.237,286.888 337.222,286.758C337.087,286.753 336.919,286.751 336.8,286.75C333.554,286.724 330.348,286.19 327.248,285.675L326.011,285.471C325.87,285.448 325.712,285.421 325.563,285.421C325.489,285.421 325.459,285.429 325.459,285.43C325.146,285.592 324.805,285.76 324.464,285.928C323.338,286.483 322.274,287.007 321.352,287.707C319.031,289.467 316.72,291.334 314.486,293.138C313.439,293.983 312.392,294.828 311.34,295.667C310.956,295.974 310.553,296.296 310.043,296.458C308.017,297.104 306.176,297.64 304.169,297.64C303.8,297.64 303.432,297.622 303.075,297.583C302.81,297.556 302.544,297.519 302.279,297.483C301.903,297.432 301.527,297.379 301.149,297.356L301.147,297.248C301.143,297.258 301.14,297.267 301.136,297.277L301.136,297.356C301.126,297.356 301.116,297.356 301.104,297.357M242.689,302.168C242.836,302.449 242.992,302.725 243.16,302.986L243.397,303.354C244.647,305.301 245.827,307.14 247.808,308.252C248.987,308.914 249.918,309.591 250.654,310.319C251.968,311.62 253.729,312.079 255.432,312.523C256.673,312.847 257.985,312.922 259.373,313.001C259.789,313.025 260.205,313.049 260.618,313.08C261.418,313.139 262.556,313.376 263.178,314.748C263.318,315.058 263.523,315.364 263.74,315.688C263.935,315.979 264.136,316.281 264.311,316.614C265.274,318.448 267.048,319.347 269.096,320.251C271.19,321.177 273.28,321.646 275.306,321.646C275.861,321.646 276.418,321.611 276.962,321.539C278.22,321.377 279.542,321.163 280.685,320.705C282.896,319.82 285.122,318.851 287.275,317.914C288.538,317.364 289.801,316.814 291.068,316.277C291.401,316.137 291.741,316.009 292.082,315.882C293.305,315.425 294.362,315.032 295.014,314.03C295.271,313.635 295.49,313.203 295.721,312.746C295.827,312.536 295.934,312.326 296.044,312.118C295.44,312.662 294.839,313.2 294.229,313.727C293.895,314.017 293.443,314.372 292.907,314.541C290.284,315.373 287.906,316.062 285.357,316.062C284.869,316.063 284.381,316.036 283.908,315.984C283.854,315.979 283.8,315.977 283.746,315.977C283.651,315.977 283.555,315.982 283.46,315.987C283.098,316.005 282.735,316.016 282.373,316.016C280.881,316.016 279.69,315.813 278.623,315.377C278.131,315.176 277.637,315.078 277.112,315.078C276.428,315.078 275.701,315.239 274.755,315.6C274.136,315.834 273.63,315.943 273.162,315.943L273.074,315.942C271.611,315.895 270.128,315.776 268.82,315.672C268.311,315.633 267.763,315.59 267.306,315.277C267.069,315.113 266.827,314.955 266.585,314.795C265.213,313.894 263.795,312.961 263.011,311.246C262.939,311.088 262.924,311.055 262.582,311.055L262.291,311.059C261.913,311.067 261.534,311.074 261.157,311.074C260.023,311.074 258.685,311.016 257.344,310.581C256.81,310.409 256.26,310.278 255.678,310.139C254.791,309.928 253.874,309.709 253.004,309.329C249.98,308.007 247.653,306.101 246.085,303.664C246.022,303.565 245.943,303.473 245.859,303.399C245.739,303.294 245.668,303.262 245.649,303.256C244.667,302.891 243.685,302.531 242.689,302.168M254.257,315.591C254.559,316.161 254.844,316.647 255.208,316.976C257.067,318.651 258.825,319.998 260.583,321.095C260.918,321.304 261.249,321.521 261.582,321.738C263.124,322.747 264.581,323.699 266.362,323.91C267.092,323.996 267.812,324.137 268.509,324.272C269.277,324.422 270.01,324.565 270.741,324.639C270.355,324.518 269.971,324.389 269.591,324.248C268.759,323.941 268.001,323.498 267.268,323.072C267.008,322.919 266.748,322.768 266.485,322.623C266.334,322.54 266.18,322.461 266.024,322.381C265.502,322.112 264.961,321.835 264.495,321.408C263.13,320.154 261.776,318.91 260.882,317.204C260.846,317.143 260.68,317.017 260.555,316.984C258.832,316.544 257.087,316.162 255.759,315.877C255.271,315.773 254.782,315.684 254.257,315.591M295.77,327.33L296.159,328.074C296.526,327.738 296.911,327.433 297.285,327.145C297.293,327.139 297.302,327.132 297.312,327.125C296.441,326.677 295.633,326.04 295.264,324.917L286.285,325.655L286.177,324.683L286.091,323.941L288.078,323.499C289.046,323.286 290.015,323.072 290.98,322.844C293.687,322.207 295.383,321.375 296.038,319.015C296.087,318.837 296.1,318.687 296.081,318.537C295.665,318.878 295.225,319.206 294.696,319.409C293.879,319.722 293.039,319.953 292.225,320.176C291.486,320.378 290.789,320.57 290.107,320.818C289.684,320.972 289.256,321.114 288.828,321.255C287.269,321.77 285.797,322.256 284.597,323.34C283.946,323.928 283.75,324.378 283.823,325.123C283.892,325.829 284.653,326.803 285.359,327.089C286.95,327.734 288.606,327.823 290.16,327.823C290.372,327.823 291.116,327.815 291.116,327.815C292.327,327.804 293.373,327.795 294.246,327.126C294.462,326.958 294.69,326.924 294.812,326.905L295.453,326.743L295.77,327.33ZM302.528,328.72C302.801,328.852 303.078,328.933 303.304,328.946C304.049,328.987 304.813,329.008 305.574,329.008C308.69,329.008 311.913,328.666 315.427,327.961C315.843,327.877 316.273,327.822 316.703,327.768C317.5,327.665 318.254,327.57 318.862,327.279C321.226,326.147 323.165,325.019 324.79,323.832C327.189,322.078 329.803,320.298 333.031,319.496C334.183,319.21 335.179,318.678 336.084,317.995C333.165,319.066 330.243,319.67 327.398,319.789C326.765,319.815 326.347,320.042 325.744,320.686C323.508,323.072 320.371,325.947 315.908,327.019C315.46,327.127 315.016,327.247 314.571,327.369C313.851,327.564 313.106,327.767 312.347,327.913C311.415,328.094 310.467,328.216 309.55,328.334C309.16,328.384 308.77,328.434 308.38,328.488L307.722,328.58L307.024,326.73L308.028,326.569C312.359,325.873 315.897,324.427 318.734,322.179C318.009,322.523 317.259,322.867 316.427,322.969C315.185,323.121 313.978,323.198 312.839,323.198C311.186,323.198 309.586,323.036 308.084,322.715C305.76,322.219 303.38,321.768 301.08,321.333L300.159,321.159C300.138,321.158 300.072,321.158 300.06,321.159C299.643,321.635 299.297,323.44 299.531,324.024C300.077,325.388 300.732,326.143 301.725,326.551C302.02,326.673 302.266,326.84 302.483,326.988C302.564,327.043 302.644,327.099 302.726,327.149L302.173,328.546C302.291,328.604 302.41,328.662 302.528,328.72M274.407,328.872C274.6,328.914 274.799,328.947 275,328.97C275.625,329.043 276.254,329.083 276.884,329.125C277.549,329.168 278.229,329.212 278.91,329.294C278.106,329.077 277.253,328.928 276.344,328.928L275.82,328.933C275.347,328.933 274.875,328.91 274.407,328.872M288.512,335.007C287.604,335.007 286.649,334.928 285.674,334.772C283.724,334.46 281.927,333.796 280.189,333.155C279.794,333.009 279.398,332.862 278.999,332.72C278.455,332.525 277.844,332.439 277.197,332.348L276.648,332.268C276.244,332.204 275.835,332.16 275.426,332.116C274.616,332.027 273.778,331.936 272.957,331.704C272.214,331.494 271.562,331.115 270.931,330.748C270.676,330.601 270.421,330.452 270.161,330.318C268.913,329.672 267.66,329.033 266.407,328.394C263.291,326.806 260.069,325.164 256.959,323.427C255.214,322.453 253.707,321.15 252.718,319.761C249.733,315.564 246.47,311.907 242.74,308.58C240.802,306.851 239.339,304.655 238.392,302.053C237.998,300.974 237.671,299.78 237.361,298.295C237.082,296.959 236.795,295.765 236.126,294.695C235.474,293.652 234.732,292.235 234.786,290.52L234.815,289.467C234.847,288.234 234.88,286.958 235.003,285.699C235.052,285.187 235.333,284.78 235.56,284.452C235.67,284.293 235.773,284.142 235.826,284.018C235.826,284.018 235.861,283.909 235.81,283.6C235.721,283.067 235.614,282.536 235.507,282.004C235.289,280.916 235.064,279.792 234.987,278.649C234.924,277.724 235.052,276.816 235.176,275.939C235.234,275.52 235.294,275.102 235.331,274.684C235.333,274.662 235.333,274.64 235.333,274.618C234.2,273.708 234.019,272.434 233.873,271.4C233.835,271.14 233.799,270.879 233.747,270.626C233.069,267.33 234.215,264.462 235.425,262.091C235.747,261.462 236.284,260.995 236.757,260.583C236.938,260.427 237.118,260.271 237.282,260.108C237.403,259.987 237.527,259.871 237.657,259.752C237.62,259.69 237.585,259.64 237.553,259.608C236.328,258.364 235.847,256.801 236.083,254.83C236.101,254.684 236.102,254.572 236.089,254.496C235.668,252.151 236.615,250.24 237.71,248.327C238.121,247.608 238.965,247.252 239.644,246.967L239.725,246.933C240.023,246.806 240.022,246.782 240.005,246.497C239.945,245.458 239.945,244.423 240.006,243.419C240.046,242.749 240.129,241.872 240.413,241.036C240.761,240.007 241.246,238.664 241.911,237.408C242.281,236.71 242.884,236.175 243.416,235.702L243.778,235.38C245.329,233.997 245.329,233.997 245.272,231.877C245.237,230.539 245.654,229.413 246.057,228.323C246.257,227.782 246.446,227.27 246.575,226.747C247.079,224.702 248.522,223.515 249.795,222.467C250.023,222.279 250.251,222.092 250.474,221.899C251.181,221.29 251.527,220.802 251.67,220.215C252.377,217.301 254.177,215.076 256.016,213.106C256.571,212.511 257.297,212.178 258,211.856C258.22,211.755 258.439,211.655 258.648,211.547C259.131,211.298 259.62,211.059 260.108,210.821C260.839,210.464 261.596,210.095 262.306,209.697C262.542,209.564 262.789,209.289 262.879,209.057C263.607,207.191 264.953,205.921 266.254,204.692C266.648,204.32 267.042,203.949 267.415,203.56C267.88,203.079 268.53,202.911 269.103,202.764C269.221,202.733 269.338,202.703 269.45,202.67C271.872,201.958 274.004,200.721 276.261,199.412C276.957,199.008 277.654,198.603 278.359,198.216C278.665,198.048 278.968,197.876 279.272,197.705C279.789,197.412 280.305,197.12 280.831,196.845C281.136,196.685 281.504,196.595 281.956,196.568C282.374,196.544 282.795,196.537 283.215,196.531C283.986,196.519 284.714,196.508 285.41,196.386C285.865,196.307 286.327,196.267 286.781,196.267C288.839,196.267 290.609,197.093 291.921,197.813C292.191,197.961 292.615,198.194 292.828,198.268C292.964,198.091 293.18,197.679 293.259,197.53C294.446,195.27 296.121,193.89 298.531,193.185C298.956,193.061 299.396,193 299.875,193C300.317,193 300.731,193.051 301.131,193.099C301.358,193.126 301.584,193.153 301.816,193.171C303.77,193.315 305.324,194.22 306.828,195.095C307.265,195.35 307.704,195.605 308.152,195.84C308.648,196.1 309.191,196.263 309.679,196.301C313.835,196.619 314.051,196.716 317.463,199.78L317.645,199.94C317.848,200.117 318.059,200.301 318.257,200.526C318.829,201.177 319.405,201.48 320.069,201.48C320.272,201.48 320.49,201.452 320.716,201.396C320.852,201.362 320.998,201.345 321.152,201.345C321.482,201.345 321.797,201.424 322.05,201.488C322.386,201.572 322.686,201.664 322.985,201.757C323.399,201.885 323.79,202.007 324.176,202.076C326.143,202.425 327.504,203.607 328.821,204.749L328.949,204.859C330.544,206.243 331.572,207.993 332.183,210.368C332.388,211.166 332.725,211.602 333.381,211.924C334.833,212.635 336.038,213.337 337.064,214.07C337.629,214.475 338.111,214.956 338.577,215.421C338.94,215.784 339.283,216.126 339.652,216.421C341.843,218.175 342.536,220.595 342.866,222.263C343.092,223.414 343.331,224.53 343.743,225.534C344.094,226.393 344.622,227.273 345.308,228.15C346.343,229.471 346.926,231.087 346.95,232.7C346.965,233.818 347.373,234.781 347.807,235.8C347.965,236.175 348.124,236.55 348.267,236.936C348.57,237.755 348.676,238.609 348.78,239.433C348.826,239.799 348.872,240.164 348.935,240.523L348.951,240.61C348.967,240.711 348.995,240.864 349.018,240.913C349.229,241.198 349.491,241.54 349.779,241.754C351.738,243.204 352.048,245.331 352.322,247.208L352.415,247.825C352.508,248.428 352.398,249.018 352.298,249.538C352.239,249.856 352.182,250.156 352.175,250.429C352.169,250.62 352.252,250.86 352.309,250.923C354.355,252.746 355.075,255.199 354.384,258.012C354.084,259.234 354.5,260.14 355.169,261.381C355.771,262.497 355.884,263.586 355.915,264.504C355.999,266.95 355.687,268.91 354.933,270.672C354.934,270.671 354.935,270.67 354.935,270.67C354.945,270.67 354.954,270.722 354.964,270.759C357.012,272.951 357.97,275.587 357.813,278.597L357.793,278.972C357.767,279.485 357.742,279.999 357.695,280.509C357.401,283.723 356.145,286.609 354.773,289.529C354.498,290.114 354.158,290.65 353.828,291.169C353.599,291.529 353.371,291.888 353.168,292.261C352.985,292.6 352.733,293.103 352.665,293.564C352.58,294.148 352.53,294.734 352.476,295.355C352.391,296.353 352.302,297.385 352.053,298.395C351.803,299.415 351.399,300.381 351.007,301.315C350.762,301.902 350.531,302.456 350.332,303.026C349.316,305.946 347.629,308.474 346.114,310.56C345.576,311.301 344.928,311.953 344.31,312.556C343.919,312.939 343.701,313.364 343.581,313.975C342.897,317.467 340.918,320.112 337.702,321.836C335.906,322.798 334.35,323.354 332.806,323.588C331.74,323.748 330.734,324.15 329.642,324.852L329.05,325.233C326.61,326.801 324.088,328.423 321.506,329.864C320.545,330.402 319.481,330.684 318.452,330.957C318.088,331.053 317.725,331.149 317.369,331.257C314.073,332.253 310.662,332.758 307.231,332.758C305.937,332.758 304.619,332.686 303.311,332.543C302.113,332.413 300.989,331.964 299.901,331.53C299.586,331.404 299.273,331.28 298.959,331.164C298.819,331.111 298.738,331.1 298.696,331.1C298.666,331.1 298.606,331.1 298.46,331.208C297.927,331.604 297.373,331.973 296.819,332.341L296.383,332.632C293.996,334.23 291.421,335.007 288.512,335.007" style="fill:#eee;fill-rule:nonzero;"/>
        </g>
    </g>
</svg>
