<svg id="Layer_1" data-name="Layer 1" xmlns="http://www.w3.org/2000/svg" viewBox="0 0 58.16 24.62"><defs><style>.cls-1{fill:#4d4d4d;}</style></defs><title>contact</title><circle class="cls-1" cx="28.83" cy="12.31" r="6.55"/><path class="cls-1" d="M1190.16,2091.34a12.31,12.31,0,0,0-12.31,12.3v-1.31h-7.68a4.53,4.53,0,1,0,0,2.62h7.68v-1.31A12.31,12.31,0,1,0,1190.16,2091.34Zm0,22.11a9.8,9.8,0,1,1,9.8-9.8A9.81,9.81,0,0,1,1190.16,2113.44Z" transform="translate(-1161.33 -2091.34)"/><path class="cls-1" d="M1215,2099.12a4.51,4.51,0,0,0-4.31,3.22h-8.18V2105h8.18A4.52,4.52,0,1,0,1215,2099.12Z" transform="translate(-1161.33 -2091.34)"/></svg>