<?xml version="1.0" encoding="UTF-8" standalone="no"?>
<!DOCTYPE svg PUBLIC "-//W3C//DTD SVG 1.1//EN" "http://www.w3.org/Graphics/SVG/1.1/DTD/svg11.dtd">
<svg width="100%" height="100%" viewBox="0 0 420 420" version="1.1" xmlns="http://www.w3.org/2000/svg" xmlns:xlink="http://www.w3.org/1999/xlink" xml:space="preserve" style="fill-rule:evenodd;clip-rule:evenodd;stroke-linejoin:round;stroke-miterlimit:1.41421;">
    <g id="Artboard1" transform="matrix(0.952381,0,0,0.952381,0,0)">
        <rect x="0" y="0" width="441" height="441" style="fill:none;"/>
        <g transform="matrix(1.19512,0,0,1.19512,-43.0244,-43.0244)">
            <path d="M36,342L99,342L99,405L36,405L36,342ZM153,396L162,396L162,405L153,405L153,396ZM324,387L333,387L333,396L342,396L342,405L324,405L324,396L315,396L315,378L324,378L324,387ZM288,225L288,234L297,234L297,243L288,243L288,252L297,252L297,243L315,243L315,252L306,252L306,261L297,261L297,270L288,270L288,279L297,279L297,270L306,270L306,279L324,279L324,288L306,288L306,297L324,297L324,288L333,288L333,297L351,297L351,306L360,306L360,315L351,315L351,324L360,324L360,315L369,315L369,324L378,324L378,360L387,360L387,369L396,369L396,378L387,378L387,387L378,387L378,405L360,405L360,387L369,387L369,378L360,378L360,369L306,369L306,405L297,405L297,396L288,396L288,405L270,405L270,387L279,387L279,378L270,378L270,387L261,387L261,369L252,369L252,387L243,387L243,396L252,396L252,387L261,387L261,405L198,405L198,396L180,396L180,405L171,405L171,387L189,387L189,378L198,378L198,387L207,387L207,396L216,396L216,387L225,387L225,378L234,378L234,369L243,369L243,360L252,360L252,351L261,351L261,342L270,342L270,333L279,333L279,324L288,324L288,333L297,333L297,342L306,342L306,351L315,351L315,342L306,342L306,333L324,333L324,324L333,324L333,315L342,315L342,306L333,306L333,315L324,315L324,306L306,306L306,315L324,315L324,324L306,324L306,333L297,333L297,315L288,315L288,297L297,297L297,288L288,288L288,297L279,297L279,288L270,288L270,279L279,279L279,252L270,252L270,243L279,243L279,225L288,225ZM171,243L180,243L180,279L234,279L234,288L225,288L225,297L216,297L216,288L189,288L189,297L180,297L180,288L171,288L171,297L180,297L180,306L162,306L162,315L180,315L180,306L198,306L198,297L216,297L216,315L243,315L243,306L252,306L252,297L279,297L279,315L270,315L270,306L261,306L261,315L252,315L252,324L234,324L234,333L216,333L216,324L198,324L198,333L216,333L216,342L207,342L207,351L198,351L198,342L180,342L180,351L189,351L189,360L180,360L180,369L171,369L171,378L162,378L162,387L144,387L144,396L126,396L126,405L108,405L108,396L117,396L117,387L135,387L135,378L117,378L117,369L126,369L126,360L117,360L117,369L108,369L108,360L117,360L117,351L135,351L135,369L144,369L144,378L153,378L153,360L162,360L162,342L171,342L171,333L144,333L144,324L153,324L153,315L144,315L144,324L135,324L135,342L126,342L126,324L117,324L117,351L108,351L108,315L90,315L90,324L99,324L99,333L54,333L54,324L36,324L36,306L45,306L45,297L54,297L54,306L63,306L63,315L72,315L72,324L81,324L81,315L72,315L72,306L153,306L153,297L162,297L162,288L171,288L171,279L162,279L162,270L171,270L171,261L162,261L162,270L153,270L153,279L162,279L162,288L153,288L153,297L144,297L144,288L126,288L126,279L135,279L135,270L144,270L144,261L162,261L162,252L171,252L171,243ZM45,351L45,396L90,396L90,351L45,351ZM387,405L387,387L396,387L396,378L405,378L405,396L396,396L396,405L387,405ZM297,351L288,351L288,387L297,387L297,369L306,369L306,360L297,360L297,351ZM54,360L81,360L81,387L54,387L54,360ZM225,360L225,369L216,369L216,378L198,378L198,369L207,369L207,360L225,360ZM270,351L270,369L279,369L279,351L270,351ZM252,351L234,351L234,360L225,360L225,342L234,342L234,333L252,333L252,351ZM396,342L405,342L405,360L396,360L396,342ZM333,333L333,360L360,360L360,333L333,333ZM135,342L144,342L144,351L135,351L135,342ZM342,342L351,342L351,351L342,351L342,342ZM252,324L261,324L261,333L252,333L252,324ZM387,324L396,324L396,333L387,333L387,324ZM396,306L405,306L405,324L396,324L396,306ZM198,306L198,315L207,315L207,306L198,306ZM378,306L387,306L387,315L378,315L378,306ZM369,270L378,270L378,288L387,288L387,297L378,297L378,306L360,306L360,297L369,297L369,288L360,288L360,279L369,279L369,270ZM225,171L234,171L234,189L243,189L243,180L252,180L252,198L261,198L261,207L252,207L252,216L270,216L270,207L279,207L279,225L252,225L252,243L261,243L261,252L243,252L243,243L234,243L234,252L243,252L243,270L252,270L252,279L261,279L261,288L252,288L252,297L243,297L243,306L234,306L234,288L243,288L243,279L234,279L234,270L225,270L225,261L207,261L207,270L189,270L189,261L207,261L207,252L216,252L216,234L243,234L243,225L234,225L234,207L243,207L243,198L225,198L225,189L207,189L207,198L198,198L198,189L207,189L207,180L225,180L225,171ZM63,297L72,297L72,306L63,306L63,297ZM36,279L63,279L63,270L81,270L81,279L72,279L72,288L63,288L63,297L54,297L54,288L36,288L36,279ZM108,279L117,279L117,288L126,288L126,297L72,297L72,288L108,288L108,279ZM396,261L405,261L405,297L396,297L396,261ZM117,261L126,261L126,279L117,279L117,261ZM99,261L108,261L108,279L90,279L90,270L99,270L99,261ZM351,270L360,270L360,279L351,279L351,270ZM369,243L378,243L378,261L369,261L369,252L360,252L360,261L351,261L351,252L360,252L360,234L351,234L351,243L333,243L333,252L342,252L342,261L351,261L351,270L342,270L342,279L333,279L333,261L324,261L324,270L306,270L306,261L315,261L315,252L324,252L324,234L351,234L351,225L369,225L369,243ZM108,63L117,63L117,72L135,72L135,99L126,99L126,90L117,90L117,99L126,99L126,117L135,117L135,126L144,126L144,135L135,135L135,171L126,171L126,153L117,153L117,144L108,144L108,153L90,153L90,144L99,144L99,135L81,135L81,162L108,162L108,171L90,171L90,180L117,180L117,198L108,198L108,216L99,216L99,207L90,207L90,198L99,198L99,189L90,189L90,198L81,198L81,189L72,189L72,180L63,180L63,189L72,189L72,198L81,198L81,207L90,207L90,216L81,216L81,234L72,234L72,225L63,225L63,243L54,243L54,252L45,252L45,270L36,270L36,243L45,243L45,234L54,234L54,216L72,216L72,207L54,207L54,189L45,189L45,207L54,207L54,216L45,216L45,234L36,234L36,180L54,180L54,171L72,171L72,144L63,144L63,135L81,135L81,126L108,126L108,117L90,117L90,108L108,108L108,63ZM360,261L369,261L369,270L360,270L360,261ZM54,252L63,252L63,270L54,270L54,252ZM81,261L90,261L90,270L81,270L81,261ZM378,261L387,261L387,270L378,270L378,261ZM387,252L396,252L396,261L387,261L387,252ZM126,207L126,234L117,234L117,243L126,243L126,234L135,234L135,225L153,225L153,216L162,216L162,207L171,207L171,216L189,216L189,225L171,225L171,243L162,243L162,225L153,225L153,234L144,234L144,243L135,243L135,252L144,252L144,261L126,261L126,252L108,252L108,243L81,243L81,234L108,234L108,225L117,225L117,207L126,207ZM72,252L81,252L81,261L72,261L72,252ZM90,252L99,252L99,261L90,261L90,252ZM189,243L207,243L207,252L189,252L189,243ZM144,243L153,243L153,252L144,252L144,243ZM63,243L72,243L72,252L63,252L63,243ZM378,234L387,234L387,243L378,243L378,234ZM396,234L405,234L405,243L396,243L396,234ZM180,234L189,234L189,243L180,243L180,234ZM198,135L198,144L207,144L207,153L198,153L198,162L207,162L207,180L198,180L198,189L189,189L189,198L198,198L198,207L207,207L207,216L225,216L225,225L216,225L216,234L207,234L207,225L198,225L198,234L189,234L189,225L198,225L198,216L189,216L189,207L180,207L180,189L171,189L171,198L162,198L162,189L171,189L171,180L189,180L189,162L180,162L180,171L171,171L171,162L162,162L162,144L180,144L180,135L198,135ZM306,225L315,225L315,234L306,234L306,225ZM351,180L360,180L360,171L369,171L369,189L387,189L387,180L396,180L396,162L405,162L405,189L396,189L396,198L378,198L378,216L387,216L387,207L396,207L396,198L405,198L405,216L396,216L396,225L369,225L369,198L351,198L351,180ZM90,216L99,216L99,225L90,225L90,216ZM360,216L342,216L342,225L315,225L315,216L333,216L333,207L360,207L360,216ZM288,207L297,207L297,216L288,216L288,207ZM135,207L153,207L153,216L135,216L135,207ZM153,198L162,198L162,207L153,207L153,198ZM279,162L288,162L288,171L306,171L306,189L315,189L315,207L306,207L306,198L288,198L288,207L279,207L279,189L297,189L297,180L270,180L270,171L279,171L279,162ZM324,198L333,198L333,207L324,207L324,198ZM261,189L270,189L270,198L261,198L261,189ZM162,135L162,144L153,144L153,162L162,162L162,171L171,171L171,180L162,180L162,189L144,189L144,180L153,180L153,171L144,171L144,135L162,135ZM297,135L306,135L306,153L324,153L324,171L333,171L333,153L351,153L351,162L360,162L360,171L342,171L342,189L333,189L333,180L315,180L315,171L306,171L306,162L297,162L297,153L288,153L288,144L297,144L297,135ZM126,180L135,180L135,189L126,189L126,180ZM252,171L261,171L261,180L252,180L252,171ZM378,108L378,117L369,117L369,126L378,126L378,144L387,144L387,126L396,126L396,108L405,108L405,153L387,153L387,171L378,171L378,162L360,162L360,153L369,153L369,144L342,144L342,135L351,135L351,126L324,126L324,117L333,117L333,108L378,108ZM234,153L243,153L243,171L234,171L234,153ZM207,153L225,153L225,171L216,171L216,162L207,162L207,153ZM36,153L45,153L45,162L36,162L36,153ZM54,153L63,153L63,162L54,162L54,153ZM270,153L279,153L279,162L270,162L270,153ZM252,144L270,144L270,153L252,153L252,144ZM180,144L180,153L189,153L189,144L180,144ZM315,135L333,135L333,153L324,153L324,144L315,144L315,135ZM189,63L207,63L207,45L216,45L216,54L234,54L234,63L252,63L252,81L243,81L243,99L234,99L234,90L225,90L225,99L234,99L234,108L243,108L243,99L252,99L252,126L261,126L261,135L234,135L234,153L225,153L225,135L216,135L216,126L243,126L243,117L216,117L216,90L207,90L207,99L198,99L198,90L207,90L207,81L216,81L216,63L207,63L207,81L189,81L189,63ZM36,108L45,108L45,117L72,117L72,126L63,126L63,135L54,135L54,153L45,153L45,144L36,144L36,135L45,135L45,126L36,126L36,108ZM288,99L288,117L297,117L297,135L288,135L288,144L279,144L279,135L270,135L270,117L279,117L279,99L288,99ZM189,99L198,99L198,108L207,108L207,117L198,117L198,126L189,126L189,117L180,117L180,126L162,126L162,117L180,117L180,108L189,108L189,99ZM306,117L315,117L315,126L306,126L306,117ZM144,108L153,108L153,117L144,117L144,108ZM72,108L81,108L81,117L72,117L72,108ZM297,99L306,99L306,108L297,108L297,99ZM135,99L144,99L144,108L135,108L135,99ZM144,90L153,90L153,72L162,72L162,81L171,81L171,72L180,72L180,81L189,81L189,99L180,99L180,90L171,90L171,108L162,108L162,90L153,90L153,99L144,99L144,90ZM324,90L333,90L333,108L324,108L324,90ZM342,36L405,36L405,99L342,99L342,36ZM270,63L279,63L279,54L306,54L306,36L315,36L315,45L333,45L333,54L315,54L315,63L306,63L306,81L324,81L324,90L315,90L315,99L306,99L306,90L297,90L297,99L288,99L288,90L297,90L297,72L288,72L288,63L279,63L279,72L288,72L288,81L270,81L270,63ZM36,36L99,36L99,99L36,99L36,36ZM270,90L279,90L279,99L270,99L270,90ZM252,90L261,90L261,99L252,99L252,90ZM45,45L45,90L90,90L90,45L45,45ZM351,45L351,90L396,90L396,45L351,45ZM225,72L225,81L234,81L234,72L225,72ZM54,54L81,54L81,81L54,81L54,54ZM360,54L387,54L387,81L360,81L360,54ZM135,63L144,63L144,72L135,72L135,63ZM126,54L135,54L135,63L126,63L126,54ZM180,54L189,54L189,63L180,63L180,54ZM162,54L171,54L171,63L162,63L162,54ZM261,54L270,54L270,63L261,63L261,54ZM207,36L207,45L198,45L198,54L189,54L189,45L162,45L162,54L144,54L144,36L207,36ZM117,45L126,45L126,54L117,54L117,45ZM108,36L117,36L117,45L108,45L108,36ZM234,36L261,36L261,45L234,45L234,36ZM270,36L297,36L297,45L270,45L270,36Z" style="fill:rgb(0,153,204);"/>
        </g>
    </g>
</svg>
