<svg id="Layer_1" data-name="Layer 1" xmlns="http://www.w3.org/2000/svg" viewBox="0 0 23.33 30.28"><defs><style>.cls-1{fill:#4d4d4d;}</style></defs><title>logo</title><path class="cls-1" d="M729.75,2113.62l-1.93,1.62a15.14,15.14,0,0,1-19.46,0l3.25-3.86a10.09,10.09,0,0,0,10.83,1.38l-7.59-9a3.25,3.25,0,0,1,3.87-3.24Zm-15.53-18.51-0.48-.58a10.09,10.09,0,0,1,10.77,1.32l3.21-3.89a15.14,15.14,0,0,0-19.36.08l-1.93,1.62,3.93,4.68A9.37,9.37,0,0,1,714.22,2095.11Zm11.54,12.9a8.83,8.83,0,0,0,1-5.91l-5,.88a3.73,3.73,0,0,1,0,.37Zm-10.69,3.93a8.78,8.78,0,0,0,6,0l-3.88-4.63-0.39-.12a3.78,3.78,0,0,1,2.59-7.11l1.73-4.74A8.83,8.83,0,1,0,715.06,2111.94Z" transform="translate(-706.42 -2088.51)"/></svg>