<svg id="Layer_1" data-name="Layer 1" xmlns="http://www.w3.org/2000/svg" viewBox="0 0 30.78 30.63"><defs><style>.cls-1{fill:#4d4d4d;}</style></defs><title>portfolio</title><path class="cls-1" d="M1025,2095.27a6.94,6.94,0,1,1-6.94-6.94A6.94,6.94,0,0,1,1025,2095.27Zm10-2.89a2.89,2.89,0,1,0,2.89,2.89,2.89,2.89,0,0,0-2.89-2.89m0-4.05a6.94,6.94,0,1,1-6.94,6.94,6.94,6.94,0,0,1,6.94-6.94h0Zm-16.9,20.8A2.89,2.89,0,1,0,1021,2112a2.89,2.89,0,0,0-2.89-2.89m0-4.05a6.94,6.94,0,1,1-6.94,6.94,6.94,6.94,0,0,1,6.94-6.94h0Zm16.9,4.05a2.89,2.89,0,1,0,2.89,2.89,2.89,2.89,0,0,0-2.89-2.89m0-4.05a6.94,6.94,0,1,1-6.94,6.94,6.94,6.94,0,0,1,6.94-6.94h0Z" transform="translate(-1011.16 -2088.33)"/></svg>