<svg xmlns="http://www.w3.org/2000/svg" viewBox="0 0 352.84 470"><defs><style>.cls-1{fill:#000;}.cls-2{fill:#222;}</style></defs><title>SlogoFULL</title><g id="Layer_2" data-name="Layer 2"><g id="Layer_1-2" data-name="Layer 1"><path class="cls-1" d="M105.14,198.72a34.89,34.89,0,0,1-24.75-10.25L10.25,118.33a35,35,0,0,1,0-49.5,235,235,0,0,1,332.34,0,35,35,0,1,1-49.5,49.5,165.15,165.15,0,0,0-206-22.13L129.89,139a35,35,0,0,1-24.75,59.75ZM342.59,401.17a35,35,0,0,0,0-49.5l-70.14-70.14A35,35,0,0,0,223,331l42.78,42.78a165.15,165.15,0,0,1-206-22.13,35,35,0,0,0-49.5,49.5,235,235,0,0,0,332.34,0Z"/><path class="cls-2" d="M176.42,371a136,136,0,1,1,68-253.78,35,35,0,0,1-35,60.62,66.09,66.09,0,0,0-33-8.84c-35.78,0-66,30.22-66,66s30.22,66,66,66,66-30.22,66-66a35,35,0,0,1,70,0,136.48,136.48,0,0,1-136,136Zm166.17,30.17c-10.27,7-84.27,56-174.35,29.5-58.92-17.33-92.87-57.57-105.88-75.33A33.3,33.3,0,0,0,48.17,344a35,35,0,0,0-37.92,57.19,235,235,0,0,0,332.34,0M10.25,68.83c10.27-7,84.27-56,174.35-29.5,58.92,17.33,92.87,57.57,105.88,75.33A33.3,33.3,0,0,0,304.67,126a35,35,0,0,0,37.92-57.19,235,235,0,0,0-332.34,0"/><path class="cls-1" d="M167.12,347.56a104,104,0,0,1-90-116.24c5.79-45.57,48.2-82.23,93-72,19.51,4.44,30.16,12.75,39.35,18.56a35,35,0,0,0,35-60.62,135.72,135.72,0,1,0,68,117.78A130,130,0,0,1,167.12,347.56Z"/></g></g></svg>
