<?xml version="1.0" encoding="UTF-8" standalone="no"?>
<!DOCTYPE svg PUBLIC "-//W3C//DTD SVG 1.1//EN" "http://www.w3.org/Graphics/SVG/1.1/DTD/svg11.dtd">
<svg width="100%" height="100%" viewBox="0 0 353 470" version="1.1" xmlns="http://www.w3.org/2000/svg" xmlns:xlink="http://www.w3.org/1999/xlink" xml:space="preserve" style="fill-rule:evenodd;clip-rule:evenodd;stroke-linejoin:round;stroke-miterlimit:1.41421;">
    <g id="Layer_1.-2">
        <g transform="matrix(0.963512,0,0,0.963512,6.43721,8.57468)">
            <path d="M176.42,371C101.813,370.999 40.421,309.607 40.421,235C40.421,160.393 101.814,99 176.421,99C200.292,99 223.747,105.285 244.42,117.22C255.123,123.494 261.719,135.008 261.719,147.414C261.719,166.614 245.919,182.414 226.719,182.414C220.654,182.414 214.692,180.838 209.42,177.84C199.386,172.052 188.004,169.004 176.42,169C140.64,169 110.42,199.22 110.42,235C110.42,270.78 140.64,301 176.42,301C212.2,301 242.42,270.78 242.42,235C242.42,215.8 258.22,200 277.42,200C296.62,200 312.42,215.8 312.42,235C312.158,309.508 250.928,370.738 176.42,371L176.42,371ZM342.59,401.17C332.32,408.17 258.32,457.17 168.24,430.67C109.32,413.34 75.37,373.1 62.36,355.34C58.773,350.319 53.859,346.392 48.17,344C43.98,342.294 39.499,341.417 34.975,341.417C15.774,341.417 -0.025,357.217 -0.025,376.417C-0.025,385.708 3.674,394.627 10.25,401.19C101.408,492.348 251.432,492.348 342.59,401.19M10.25,68.83C20.52,61.83 94.52,12.83 184.6,39.33C243.52,56.66 277.47,96.9 290.48,114.66C294.067,119.681 298.981,123.608 304.67,126C308.86,127.706 313.341,128.583 317.865,128.583C337.066,128.583 352.865,112.783 352.865,93.583C352.865,84.292 349.166,75.373 342.59,68.81C251.432,-22.348 101.408,-22.348 10.25,68.81" style="fill:none;stroke:white;stroke-width:12px;"/>
        </g>
        <g transform="matrix(0.963512,0,0,0.963512,6.43721,8.57468)">
            <path d="M167.12,347.56C110.563,340.337 69.95,287.883 77.12,231.32C82.91,185.75 125.32,149.09 170.12,159.32C189.63,163.76 200.28,172.07 209.47,177.88C214.742,180.878 220.704,182.454 226.769,182.454C245.969,182.454 261.769,166.654 261.769,147.454C261.769,135.048 255.173,123.534 244.47,117.26C223.873,105.401 200.517,99.158 176.75,99.158C102.296,99.158 41.03,160.424 41.03,234.878C41.03,309.332 102.296,370.598 176.75,370.598C251.143,370.598 312.381,309.432 312.47,235.04C303.452,305.765 237.848,356.551 167.12,347.56Z" style="fill:none;stroke:white;stroke-width:12px;"/>
        </g>
        <g transform="matrix(0.963512,0,0,0.963512,6.43721,8.57468)">
            <path d="M293.921,303.001L342.59,351.67C349.152,358.231 352.843,367.14 352.843,376.42C352.843,385.7 349.152,394.609 342.59,401.17L342.62,401.15C251.462,492.308 101.438,492.308 10.28,401.15C3.718,394.588 0.028,385.679 0.028,376.4C0.028,357.199 15.829,341.398 35.03,341.398C44.309,341.398 53.218,345.088 59.78,351.65C114.507,406.339 200.686,415.597 265.78,373.78L244.352,352.352C264.808,340.47 281.95,323.402 293.921,303.001Z" style="fill:none;stroke:white;stroke-width:12px;"/>
        </g>
        <g transform="matrix(0.963512,0,0,0.963512,6.43721,8.57468)">
            <path d="M59.247,167.327L10.25,118.33C3.688,111.769 -0.003,102.86 -0.003,93.58C-0.003,84.3 3.688,75.391 10.25,68.83C101.408,-22.328 251.432,-22.328 342.59,68.83C349.152,75.392 352.842,84.301 352.842,93.58C352.842,112.781 337.041,128.582 317.84,128.582C308.561,128.582 299.652,124.892 293.09,118.33C238.363,63.641 152.184,54.383 87.09,96.2L108.609,117.719C88.201,129.699 71.127,146.854 59.247,167.327Z" style="fill:none;stroke:white;stroke-width:12px;"/>
        </g>
    </g>
</svg>
